# This file uses centimeters as units for non-parametric coordinates.

mtllib Quarter Cylinder UVed.mtl
g default
v 282.008264 95.630407 44.183894
v 281.729798 95.576021 44.856225
v 282.008264 96.250548 44.854759
v 282.680550 96.529943 44.853294
v 282.680550 96.299159 44.187765
v 282.680550 95.653788 43.905474
v 282.680550 95.433893 58.779992
v 282.008268 95.158002 58.736296
v 281.729798 94.491941 58.630802
v 282.680550 91.950767 73.288252
v 282.008268 91.685112 73.201934
v 281.729798 91.043752 72.993545
v 282.680550 86.240930 87.073006
v 282.008268 85.992047 86.946193
v 281.729798 85.391188 86.640040
v 282.680550 78.444987 99.794838
v 282.008268 78.219006 99.630653
v 281.729798 77.673433 99.234274
v 282.680550 68.754896 111.140484
v 282.008268 68.557381 110.942969
v 281.729798 68.080536 110.466124
v 282.680550 57.409243 120.830582
v 282.008268 57.245058 120.604601
v 281.729798 56.848679 120.059028
v 282.680550 44.687415 128.626532
v 282.008268 44.560601 128.377649
v 281.729798 44.254448 127.776790
v 282.680550 30.902661 134.336369
v 282.008268 30.816343 134.070714
v 281.729798 30.607954 133.429354
v 282.680550 16.394401 137.819495
v 282.008268 16.350704 137.543604
v 281.729798 16.245211 136.877543
v 282.008264 1.798303 138.016009
v 282.680550 1.519883 138.039390
v 282.680550 1.802173 138.684762
v 282.680550 2.467703 138.915545
v 282.008264 2.469167 138.636150
v 281.729798 2.470634 137.961623
v 376.535962 95.630407 44.183894
v 375.863676 95.653788 43.905474
v 375.863676 96.299159 44.187765
v 375.863676 96.529943 44.853294
v 376.535962 96.250548 44.854759
v 376.814428 95.576021 44.856225
v 375.863676 95.433893 58.779992
v 376.535958 95.158002 58.736296
v 376.814428 94.491941 58.630802
v 375.863676 91.950767 73.288252
v 376.535958 91.685112 73.201934
v 376.814428 91.043752 72.993545
v 375.863676 86.240930 87.073006
v 376.535958 85.992047 86.946193
v 376.814428 85.391188 86.640040
v 375.863676 78.444987 99.794838
v 376.535958 78.219006 99.630653
v 376.814428 77.673433 99.234274
v 375.863676 68.754896 111.140484
v 376.535958 68.557381 110.942969
v 376.814428 68.080536 110.466124
v 375.863676 57.409243 120.830582
v 376.535958 57.245058 120.604601
v 376.814428 56.848679 120.059028
v 375.863676 44.687415 128.626532
v 376.535958 44.560601 128.377649
v 376.814428 44.254448 127.776790
v 375.863676 30.902661 134.336369
v 376.535958 30.816343 134.070714
v 376.814428 30.607954 133.429354
v 375.863676 16.394401 137.819495
v 376.535958 16.350704 137.543604
v 376.814428 16.245211 136.877543
v 376.535962 1.798303 138.016009
v 376.814428 2.470634 137.961623
v 376.535962 2.469167 138.636150
v 375.863676 2.467703 138.915545
v 375.863676 1.802173 138.684762
v 375.863676 1.519883 138.039390
v 282.680550 1.798341 44.183958
v 282.680550 1.519873 44.856241
v 282.008268 1.798341 44.856241
v 281.729798 2.470624 44.856241
v 282.008268 2.470624 44.183958
v 282.680550 2.470624 43.905489
v 375.863676 1.798341 44.183958
v 375.863676 2.470624 43.905489
v 376.535958 2.470624 44.183958
v 376.814428 2.470624 44.856241
v 376.535958 1.798341 44.856241
v 375.863676 1.519873 44.856241
v 282.131821 96.167057 44.309875
v 282.131821 1.924284 138.552659
v 376.412405 96.167057 44.309875
v 376.412405 1.924284 138.552659
v 282.131825 1.921899 44.307516
v 376.412401 1.921899 44.307516
vt 0.399076 0.662497
vt 0.399266 0.664842
vt 0.074353 0.664842
vt 0.074353 0.662497
vt 0.401429 0.662502
vt 0.401138 0.664403
vt 0.072008 0.662497
vt 0.072439 0.664411
vt 0.395295 0.614456
vt 0.397618 0.614088
vt 0.072008 0.337584
vt 0.074353 0.337774
vt 0.383269 0.564363
vt 0.385506 0.563636
vt 0.074348 0.335421
vt 0.072448 0.335712
vt 0.122395 0.341555
vt 0.363555 0.516768
vt 0.365650 0.515700
vt 0.122763 0.339232
vt 0.172487 0.353581
vt 0.336638 0.472843
vt 0.338540 0.471461
vt 0.173214 0.351344
vt 0.220082 0.373295
vt 0.303180 0.433670
vt 0.304844 0.432007
vt 0.221150 0.371200
vt 0.264007 0.400213
vt 0.265390 0.398310
vt 0.329127 0.668587
vt 0.328937 0.670932
vt 0.004214 0.670932
vt 0.004214 0.668588
vt 0.331290 0.670927
vt 0.330999 0.669027
vt 0.325156 0.718974
vt 0.001869 0.670932
vt 0.002300 0.669019
vt 0.327479 0.719342
vt 0.313130 0.769067
vt 0.004214 0.995656
vt 0.001869 0.995845
vt 0.315367 0.769793
vt 0.293416 0.816661
vt 0.004209 0.998008
vt 0.002309 0.997717
vt 0.052256 0.991875
vt 0.295511 0.817729
vt 0.266499 0.860586
vt 0.052624 0.994198
vt 0.102348 0.979848
vt 0.268401 0.861969
vt 0.233041 0.899760
vt 0.103075 0.982085
vt 0.149943 0.960134
vt 0.234705 0.901423
vt 0.193868 0.933217
vt 0.151011 0.962230
vt 0.195251 0.935120
vt 0.630724 0.329331
vt 0.630719 0.331676
vt 0.582304 0.331676
vt 0.582152 0.329331
vt 0.633045 0.329331
vt 0.632619 0.331245
vt 0.531853 0.331676
vt 0.531552 0.329331
vt 0.582152 0.004337
vt 0.630724 0.004337
vt 0.633045 0.004337
vt 0.483917 0.331676
vt 0.483475 0.329331
vt 0.531552 0.004337
vt 0.630719 0.001992
vt 0.582304 0.001992
vt 0.632619 0.002423
vt 0.439677 0.331676
vt 0.439105 0.329331
vt 0.483475 0.004337
vt 0.531853 0.001992
vt 0.400223 0.331676
vt 0.399535 0.329331
vt 0.439105 0.004337
vt 0.483917 0.001992
vt 0.366527 0.331676
vt 0.365738 0.329331
vt 0.399535 0.004337
vt 0.439677 0.001992
vt 0.365738 0.004337
vt 0.400223 0.001992
vt 0.338549 0.329331
vt 0.338549 0.004337
vt 0.366527 0.001992
vt 0.934223 0.662760
vt 0.934141 0.665105
vt 0.609228 0.665105
vt 0.609228 0.662760
vt 0.936473 0.662760
vt 0.936013 0.664674
vt 0.606883 0.662760
vt 0.607314 0.664674
vt 0.609228 0.337766
vt 0.934223 0.337766
vt 0.936473 0.337766
vt 0.606883 0.337766
vt 0.934141 0.335421
vt 0.609228 0.335421
vt 0.936013 0.335852
vt 0.607314 0.335852
vt 0.004202 0.331676
vt 0.004120 0.329331
vt 0.329115 0.329331
vt 0.329115 0.331676
vt 0.001869 0.329331
vt 0.002330 0.331245
vt 0.004120 0.004337
vt 0.329115 0.004337
vt 0.331459 0.329331
vt 0.331028 0.331245
vt 0.001869 0.004337
vt 0.004202 0.001992
vt 0.329115 0.001992
vt 0.331459 0.004337
vt 0.002330 0.002423
vt 0.331028 0.002423
vt 0.409507 0.662760
vt 0.407186 0.662760
vt 0.407186 0.337766
vt 0.409507 0.337766
vt 0.409512 0.665105
vt 0.407612 0.664674
vt 0.409512 0.335421
vt 0.407612 0.335852
vt 0.458079 0.662760
vt 0.458079 0.337766
vt 0.457927 0.665105
vt 0.457927 0.335421
vt 0.508680 0.662760
vt 0.508680 0.337766
vt 0.508379 0.665105
vt 0.508379 0.335421
vt 0.556757 0.662760
vt 0.556757 0.337766
vt 0.556314 0.665105
vt 0.556314 0.335421
vt 0.601126 0.662760
vt 0.600554 0.665105
vt 0.600554 0.335421
vt 0.601126 0.337766
vn -0.999208 0.006054 -0.039329
vn -0.924029 0.002009 -0.382318
vn -0.923968 -0.001837 -0.382465
vn -0.998944 -0.032485 -0.032485
vn -0.382509 0.001785 -0.923950
vn -0.002900 0.003002 -0.999991
vn -0.002959 -0.002960 -0.999991
vn -0.382451 -0.001836 -0.923974
vn -0.002863 0.998240 0.059234
vn -0.381666 0.922288 0.060954
vn -0.383672 0.911722 0.146831
vn -0.002915 0.987276 0.158991
vn -0.924750 0.380204 0.016824
vn -0.999208 0.006054 -0.039329
vn -0.999979 0.006431 0.001036
vn -0.924299 0.376814 0.060692
vn -0.002900 0.003002 -0.999991
vn -0.001872 0.400528 -0.916283
vn 0.001872 0.400528 -0.916283
vn 0.002900 0.003002 -0.999991
vn -0.001872 0.944884 -0.327401
vn -0.002863 0.998240 0.059234
vn 0.002863 0.998240 0.059234
vn 0.001872 0.944884 -0.327401
vn -0.002900 -0.999991 0.003002
vn -0.382507 -0.923951 0.001785
vn -0.382449 -0.923975 -0.001836
vn -0.002959 -0.999991 -0.002960
vn -0.924028 -0.382319 0.002009
vn -0.999208 -0.039329 0.006054
vn -0.998944 -0.032485 -0.032485
vn -0.923968 -0.382466 -0.001836
vn -0.002863 0.059234 0.998240
vn -0.001872 -0.327403 0.944883
vn 0.001872 -0.327403 0.944883
vn 0.002863 0.059234 0.998240
vn -0.001872 -0.916284 0.400526
vn -0.002900 -0.999991 0.003002
vn 0.002900 -0.999991 0.003002
vn 0.001872 -0.916284 0.400526
vn 0.002900 0.003002 -0.999991
vn 0.382509 0.001785 -0.923950
vn 0.382451 -0.001836 -0.923974
vn 0.002959 -0.002960 -0.999991
vn 0.924029 0.002009 -0.382318
vn 0.999208 0.006054 -0.039329
vn 0.998944 -0.032485 -0.032485
vn 0.923968 -0.001837 -0.382465
vn 0.999979 0.001036 0.006431
vn 0.924298 0.060692 0.376815
vn 0.924751 0.016824 0.380201
vn 0.999208 -0.039329 0.006054
vn 0.383677 0.146830 0.911720
vn 0.002915 0.158991 0.987276
vn 0.002863 0.059234 0.998240
vn 0.381673 0.060954 0.922285
vn 0.999208 -0.039329 0.006054
vn 0.924028 -0.382319 0.002009
vn 0.923968 -0.382466 -0.001836
vn 0.998944 -0.032485 -0.032485
vn 0.382507 -0.923951 0.001785
vn 0.002900 -0.999991 0.003002
vn 0.002959 -0.999991 -0.002960
vn 0.382449 -0.923975 -0.001836
vn -0.002959 -0.999991 -0.002960
vn -0.001835 -0.923963 -0.382478
vn 0.001835 -0.923963 -0.382478
vn 0.002959 -0.999991 -0.002960
vn -0.001835 -0.382478 -0.923963
vn -0.002959 -0.002960 -0.999991
vn 0.002959 -0.002960 -0.999991
vn 0.001835 -0.382478 -0.923963
vn -0.002863 0.998240 0.059234
vn -0.002915 0.987276 0.158991
vn 0.002915 0.987276 0.158991
vn 0.002863 0.998240 0.059234
vn -0.002915 0.987276 0.158991
vn -0.002915 0.951052 0.309016
vn 0.002915 0.951052 0.309016
vn 0.002915 0.987276 0.158991
vn -0.002915 0.951052 0.309016
vn -0.002915 0.891003 0.453988
vn 0.002915 0.891003 0.453988
vn 0.002915 0.951052 0.309016
vn -0.002915 0.891003 0.453988
vn -0.002915 0.809014 0.587783
vn 0.002915 0.809014 0.587783
vn 0.002915 0.891003 0.453988
vn -0.002915 0.809014 0.587783
vn -0.002915 0.707104 0.707104
vn 0.002915 0.707104 0.707104
vn 0.002915 0.809014 0.587783
vn -0.002915 0.707104 0.707104
vn -0.002915 0.587783 0.809013
vn 0.002915 0.587783 0.809013
vn 0.002915 0.707104 0.707104
vn -0.002915 0.587783 0.809013
vn -0.002915 0.453989 0.891003
vn 0.002915 0.453989 0.891003
vn 0.002915 0.587783 0.809013
vn -0.002915 0.453989 0.891003
vn -0.002915 0.309016 0.951052
vn 0.002915 0.309016 0.951052
vn 0.002915 0.453989 0.891003
vn -0.002915 0.309016 0.951052
vn -0.002915 0.158991 0.987276
vn 0.002915 0.158991 0.987276
vn 0.002915 0.309016 0.951052
vn -0.002915 0.158991 0.987276
vn -0.002863 0.059234 0.998240
vn 0.002863 0.059234 0.998240
vn 0.002915 0.158991 0.987276
vn -0.999979 0.006431 0.001036
vn -0.999208 0.006054 -0.039329
vn -0.998944 -0.032485 -0.032485
vn -0.999979 0.006200 0.002014
vn -0.999979 0.006431 0.001036
vn -0.998944 -0.032485 -0.032485
vn -0.999979 0.005813 0.002962
vn -0.999979 0.006200 0.002014
vn -0.998944 -0.032485 -0.032485
vn -0.999979 0.005281 0.003837
vn -0.999979 0.005813 0.002962
vn -0.998944 -0.032485 -0.032485
vn -0.999979 0.004617 0.004617
vn -0.999979 0.005281 0.003837
vn -0.998944 -0.032485 -0.032485
vn -0.999979 0.003837 0.005281
vn -0.999979 0.004617 0.004617
vn -0.998944 -0.032485 -0.032485
vn -0.999979 0.002962 0.005813
vn -0.999979 0.003837 0.005281
vn -0.998944 -0.032485 -0.032485
vn -0.999979 0.002014 0.006200
vn -0.999979 0.002962 0.005813
vn -0.998944 -0.032485 -0.032485
vn -0.999979 0.001036 0.006431
vn -0.999979 0.002014 0.006200
vn -0.998944 -0.032485 -0.032485
vn -0.999208 -0.039329 0.006054
vn -0.999979 0.001036 0.006431
vn -0.998944 -0.032485 -0.032485
vn 0.999208 0.006054 -0.039329
vn 0.999979 0.006431 0.001036
vn 0.998944 -0.032485 -0.032485
vn 0.999979 0.006431 0.001036
vn 0.999979 0.006200 0.002014
vn 0.998944 -0.032485 -0.032485
vn 0.999979 0.006200 0.002014
vn 0.999979 0.005813 0.002962
vn 0.998944 -0.032485 -0.032485
vn 0.999979 0.005813 0.002962
vn 0.999979 0.005281 0.003837
vn 0.998944 -0.032485 -0.032485
vn 0.999979 0.005281 0.003837
vn 0.999979 0.004617 0.004617
vn 0.998944 -0.032485 -0.032485
vn 0.999979 0.004617 0.004617
vn 0.999979 0.003837 0.005281
vn 0.998944 -0.032485 -0.032485
vn 0.999979 0.003837 0.005281
vn 0.999979 0.002962 0.005813
vn 0.998944 -0.032485 -0.032485
vn 0.999979 0.002962 0.005813
vn 0.999979 0.002014 0.006200
vn 0.998944 -0.032485 -0.032485
vn 0.999979 0.002014 0.006200
vn 0.999979 0.001036 0.006431
vn 0.998944 -0.032485 -0.032485
vn 0.999979 0.001036 0.006431
vn 0.999208 -0.039329 0.006054
vn 0.998944 -0.032485 -0.032485
vn -0.002959 -0.999991 -0.002960
vn 0.002959 -0.999991 -0.002960
vn 0.002900 -0.999991 0.003002
vn -0.002900 -0.999991 0.003002
vn 0.002900 0.003002 -0.999991
vn 0.002959 -0.002960 -0.999991
vn -0.002959 -0.002960 -0.999991
vn -0.002900 0.003002 -0.999991
vn -0.002915 0.987276 0.158991
vn -0.383672 0.911722 0.146831
vn -0.383693 0.878264 0.285364
vn -0.002915 0.951052 0.309016
vn -0.924299 0.376814 0.060692
vn -0.999979 0.006431 0.001036
vn -0.999979 0.006200 0.002014
vn -0.924296 0.362995 0.117944
vn -0.002915 0.951052 0.309016
vn -0.383693 0.878264 0.285364
vn -0.383693 0.822811 0.419241
vn -0.002915 0.891003 0.453988
vn -0.924296 0.362995 0.117944
vn -0.999979 0.006200 0.002014
vn -0.999979 0.005813 0.002962
vn -0.924296 0.340077 0.173278
vn -0.002915 0.891003 0.453988
vn -0.383693 0.822811 0.419241
vn -0.383692 0.747096 0.542796
vn -0.002915 0.809014 0.587783
vn -0.924296 0.340077 0.173278
vn -0.999979 0.005813 0.002962
vn -0.999979 0.005281 0.003837
vn -0.924294 0.308786 0.224347
vn -0.002915 0.809014 0.587783
vn -0.383692 0.747096 0.542796
vn -0.383697 0.652984 0.652984
vn -0.002915 0.707104 0.707104
vn -0.924294 0.308786 0.224347
vn -0.999979 0.005281 0.003837
vn -0.999979 0.004617 0.004617
vn -0.924294 0.269888 0.269891
vn -0.002915 0.707104 0.707104
vn -0.383697 0.652984 0.652984
vn -0.383694 0.542796 0.747095
vn -0.002915 0.587783 0.809013
vn -0.924294 0.269888 0.269891
vn -0.999979 0.004617 0.004617
vn -0.999979 0.003837 0.005281
vn -0.924295 0.224344 0.308787
vn -0.002915 0.587783 0.809013
vn -0.383694 0.542796 0.747095
vn -0.383692 0.419242 0.822810
vn -0.002915 0.453989 0.891003
vn -0.924295 0.224344 0.308787
vn -0.999979 0.003837 0.005281
vn -0.999979 0.002962 0.005813
vn -0.924296 0.173278 0.340076
vn -0.002915 0.453989 0.891003
vn -0.383692 0.419242 0.822810
vn -0.383692 0.285365 0.878264
vn -0.002915 0.309016 0.951052
vn -0.924296 0.173278 0.340076
vn -0.999979 0.002962 0.005813
vn -0.999979 0.002014 0.006200
vn -0.924296 0.117945 0.362997
vn -0.002915 0.309016 0.951052
vn -0.383692 0.285365 0.878264
vn -0.383677 0.146830 0.911720
vn -0.002915 0.158991 0.987276
vn -0.924296 0.117945 0.362997
vn -0.999979 0.002014 0.006200
vn -0.999979 0.001036 0.006431
vn -0.924298 0.060692 0.376815
vn -0.002915 0.158991 0.987276
vn -0.383677 0.146830 0.911720
vn -0.381673 0.060953 0.922286
vn -0.002863 0.059234 0.998240
vn -0.924298 0.060692 0.376815
vn -0.999979 0.001036 0.006431
vn -0.999208 -0.039329 0.006054
vn -0.924751 0.016824 0.380201
vn 0.999208 0.006054 -0.039329
vn 0.924750 0.380204 0.016825
vn 0.924299 0.376814 0.060692
vn 0.999979 0.006431 0.001036
vn 0.381666 0.922288 0.060953
vn 0.002863 0.998240 0.059234
vn 0.002915 0.987276 0.158991
vn 0.383672 0.911722 0.146830
vn 0.999979 0.006431 0.001036
vn 0.924299 0.376814 0.060692
vn 0.924296 0.362995 0.117946
vn 0.999979 0.006200 0.002014
vn 0.383672 0.911722 0.146830
vn 0.002915 0.987276 0.158991
vn 0.002915 0.951052 0.309016
vn 0.383693 0.878264 0.285364
vn 0.999979 0.006200 0.002014
vn 0.924296 0.362995 0.117946
vn 0.924295 0.340077 0.173279
vn 0.999979 0.005813 0.002962
vn 0.383693 0.878264 0.285364
vn 0.002915 0.951052 0.309016
vn 0.002915 0.891003 0.453988
vn 0.383693 0.822811 0.419241
vn 0.999979 0.005813 0.002962
vn 0.924295 0.340077 0.173279
vn 0.924294 0.308786 0.224347
vn 0.999979 0.005281 0.003837
vn 0.383693 0.822811 0.419241
vn 0.002915 0.891003 0.453988
vn 0.002915 0.809014 0.587783
vn 0.383692 0.747096 0.542796
vn 0.999979 0.005281 0.003837
vn 0.924294 0.308786 0.224347
vn 0.924294 0.269888 0.269891
vn 0.999979 0.004617 0.004617
vn 0.383692 0.747096 0.542796
vn 0.002915 0.809014 0.587783
vn 0.002915 0.707104 0.707104
vn 0.383697 0.652984 0.652984
vn 0.999979 0.004617 0.004617
vn 0.924294 0.269888 0.269891
vn 0.924295 0.224344 0.308787
vn 0.999979 0.003837 0.005281
vn 0.383697 0.652984 0.652984
vn 0.002915 0.707104 0.707104
vn 0.002915 0.587783 0.809013
vn 0.383694 0.542796 0.747095
vn 0.999979 0.003837 0.005281
vn 0.924295 0.224344 0.308787
vn 0.924296 0.173278 0.340077
vn 0.999979 0.002962 0.005813
vn 0.383694 0.542796 0.747095
vn 0.002915 0.587783 0.809013
vn 0.002915 0.453989 0.891003
vn 0.383692 0.419242 0.822810
vn 0.999979 0.002962 0.005813
vn 0.924296 0.173278 0.340077
vn 0.924296 0.117945 0.362997
vn 0.999979 0.002014 0.006200
vn 0.383692 0.419242 0.822810
vn 0.002915 0.453989 0.891003
vn 0.002915 0.309016 0.951052
vn 0.383692 0.285365 0.878264
vn 0.999979 0.002014 0.006200
vn 0.924296 0.117945 0.362997
vn 0.924298 0.060692 0.376815
vn 0.999979 0.001036 0.006431
vn 0.383692 0.285365 0.878264
vn 0.002915 0.309016 0.951052
vn 0.002915 0.158991 0.987276
vn 0.383677 0.146830 0.911720
vn -0.001872 0.400528 -0.916283
vn -0.002900 0.003002 -0.999991
vn -0.382509 0.001785 -0.923950
vn -0.331933 0.338776 -0.880370
vn -0.924029 0.002009 -0.382318
vn -0.999208 0.006054 -0.039329
vn -0.924750 0.380204 0.016824
vn -0.894616 0.328121 -0.303312
vn -0.381666 0.922288 0.060954
vn -0.002863 0.998240 0.059234
vn -0.001872 0.944884 -0.327401
vn -0.331933 0.904235 -0.268661
vn -0.924751 0.016824 0.380201
vn -0.999208 -0.039329 0.006054
vn -0.924028 -0.382319 0.002009
vn -0.894611 -0.303327 0.328122
vn -0.382507 -0.923951 0.001785
vn -0.002900 -0.999991 0.003002
vn -0.001872 -0.916284 0.400526
vn -0.331929 -0.880371 0.338778
vn -0.001872 -0.327403 0.944883
vn -0.002863 0.059234 0.998240
vn -0.381673 0.060953 0.922286
vn -0.331930 -0.268651 0.904240
vn 0.924750 0.380204 0.016825
vn 0.999208 0.006054 -0.039329
vn 0.924029 0.002009 -0.382318
vn 0.894616 0.328121 -0.303313
vn 0.382509 0.001785 -0.923950
vn 0.002900 0.003002 -0.999991
vn 0.001872 0.400528 -0.916283
vn 0.331931 0.338777 -0.880370
vn 0.001872 0.944884 -0.327401
vn 0.002863 0.998240 0.059234
vn 0.381666 0.922288 0.060953
vn 0.331922 0.904239 -0.268662
vn 0.001872 -0.916284 0.400526
vn 0.002900 -0.999991 0.003002
vn 0.382507 -0.923951 0.001785
vn 0.331929 -0.880371 0.338778
vn 0.924028 -0.382319 0.002009
vn 0.999208 -0.039329 0.006054
vn 0.924751 0.016824 0.380201
vn 0.894611 -0.303327 0.328121
vn 0.381673 0.060954 0.922285
vn 0.002863 0.059234 0.998240
vn 0.001872 -0.327403 0.944883
vn 0.331929 -0.268653 0.904240
vn -0.382451 -0.001836 -0.923974
vn -0.002959 -0.002960 -0.999991
vn -0.001835 -0.382478 -0.923963
vn -0.325270 -0.325269 -0.887919
vn -0.001835 -0.923963 -0.382478
vn -0.002959 -0.999991 -0.002960
vn -0.382449 -0.923975 -0.001836
vn -0.325270 -0.887919 -0.325269
vn -0.923968 -0.382466 -0.001836
vn -0.998944 -0.032485 -0.032485
vn -0.923968 -0.001837 -0.382465
vn -0.887920 -0.325270 -0.325266
vn 0.382449 -0.923975 -0.001836
vn 0.002959 -0.999991 -0.002960
vn 0.001835 -0.923963 -0.382478
vn 0.325270 -0.887919 -0.325269
vn 0.001835 -0.382478 -0.923963
vn 0.002959 -0.002960 -0.999991
vn 0.382451 -0.001836 -0.923974
vn 0.325270 -0.325270 -0.887918
vn 0.923968 -0.001837 -0.382465
vn 0.998944 -0.032485 -0.032485
vn 0.923968 -0.382466 -0.001836
vn 0.887919 -0.325270 -0.325267
s off
g Block4QUARTERCYLINDER_pCylinder1
usemtl lambert13SG
f 2/1/1 1/2/2 83/3/3 82/4/4
f 1/111/5 6/112/6 84/113/7 83/114/8
f 4/61/9 3/62/10 8/63/11 7/64/12
f 3/5/13 2/1/14 9/9/15 8/10/16
f 6/112/17 5/115/18 42/121/19 41/117/20
f 5/65/21 4/61/22 43/70/23 42/71/24
f 35/95/25 34/96/26 81/97/27 80/98/28
f 34/11/29 39/12/30 82/4/31 81/7/32
f 37/127/33 36/128/34 77/129/35 76/130/36
f 36/99/37 35/95/38 78/104/39 77/105/40
f 41/117/41 40/122/42 87/123/43 86/118/44
f 40/31/45 45/32/46 88/33/47 87/34/48
f 72/48/49 71/51/50 75/46/51 74/42/52
f 71/138/53 70/136/54 76/130/55 75/133/56
f 74/42/57 73/43/58 89/38/59 88/33/60
f 73/107/61 78/104/62 90/103/63 89/108/64
f 80/98/65 79/101/66 85/106/67 90/103/68
f 79/119/69 84/113/70 86/118/71 85/124/72
f 4/61/73 7/64/74 46/69/75 43/70/76
f 7/64/77 10/68/78 49/74/79 46/69/80
f 10/68/81 13/73/82 52/80/83 49/74/84
f 13/73/85 16/79/86 55/84/87 52/80/88
f 16/79/89 19/83/90 58/88/91 55/84/92
f 19/83/93 22/87/94 61/90/95 58/88/96
f 22/87/97 25/92/98 64/93/99 61/90/100
f 25/143/101 28/139/102 67/140/103 64/144/104
f 28/139/105 31/135/106 70/136/107 67/140/108
f 31/135/109 37/127/110 76/130/111 70/136/112
f 9/9/113 2/1/114 82/4/115
f 12/13/116 9/9/117 82/4/118
f 15/18/119 12/13/120 82/4/121
f 18/22/122 15/18/123 82/4/124
f 21/26/125 18/22/126 82/4/127
f 24/29/128 21/26/129 82/4/130
f 27/25/131 24/29/132 82/4/133
f 30/21/134 27/25/135 82/4/136
f 33/17/137 30/21/138 82/4/139
f 39/12/140 33/17/141 82/4/142
f 45/32/143 48/37/144 88/33/145
f 48/37/146 51/41/147 88/33/148
f 51/41/149 54/45/150 88/33/151
f 54/45/152 57/50/153 88/33/154
f 57/50/155 60/54/156 88/33/157
f 60/54/158 63/58/159 88/33/160
f 63/58/161 66/56/162 88/33/163
f 66/56/164 69/52/165 88/33/166
f 69/52/167 72/48/168 88/33/169
f 72/48/170 74/42/171 88/33/172
f 80/98/173 90/103/174 78/104/175 35/95/176
f 41/117/177 86/118/178 84/113/179 6/112/180
f 7/64/181 8/63/182 11/67/183 10/68/184
f 8/10/185 9/9/186 12/13/187 11/14/188
f 10/68/189 11/67/190 14/72/191 13/73/192
f 11/14/193 12/13/194 15/18/195 14/19/196
f 13/73/197 14/72/198 17/78/199 16/79/200
f 14/19/201 15/18/202 18/22/203 17/23/204
f 16/79/205 17/78/206 20/82/207 19/83/208
f 17/23/209 18/22/210 21/26/211 20/27/212
f 19/83/213 20/82/214 23/86/215 22/87/216
f 20/27/217 21/26/218 24/29/219 23/30/220
f 22/147/221 23/148/222 26/145/223 25/143/224
f 23/30/225 24/29/226 27/25/227 26/28/228
f 25/143/229 26/145/230 29/141/231 28/139/232
f 26/28/233 27/25/234 30/21/235 29/24/236
f 28/139/237 29/141/238 32/137/239 31/135/240
f 29/24/241 30/21/242 33/17/243 32/20/244
f 31/135/245 32/137/246 38/131/247 37/127/248
f 32/20/249 33/17/250 39/12/251 38/15/252
f 45/32/253 44/35/254 47/40/255 48/37/256
f 44/75/257 43/70/258 46/69/259 47/76/260
f 48/37/261 47/40/262 50/44/263 51/41/264
f 47/76/265 46/69/266 49/74/267 50/81/268
f 51/41/269 50/44/270 53/49/271 54/45/272
f 50/81/273 49/74/274 52/80/275 53/85/276
f 54/45/277 53/49/278 56/53/279 57/50/280
f 53/85/281 52/80/282 55/84/283 56/89/284
f 57/50/285 56/53/286 59/57/287 60/54/288
f 56/89/289 55/84/290 58/88/291 59/91/292
f 60/54/293 59/57/294 62/60/295 63/58/296
f 59/91/297 58/88/298 61/90/299 62/94/300
f 63/58/301 62/60/302 65/59/303 66/56/304
f 62/149/305 61/150/306 64/144/307 65/146/308
f 66/56/309 65/59/310 68/55/311 69/52/312
f 65/146/313 64/144/314 67/140/315 68/142/316
f 69/52/317 68/55/318 71/51/319 72/48/320
f 68/142/321 67/140/322 70/136/323 71/138/324
f 5/115/325 6/112/326 1/111/327 91/116/328
f 1/2/329 2/1/330 3/5/331 91/6/332
f 3/62/333 4/61/334 5/65/335 91/66/336
f 38/15/337 39/12/338 34/11/339 92/16/340
f 34/96/341 35/95/342 36/99/343 92/100/344
f 36/128/345 37/127/346 38/131/347 92/132/348
f 44/35/349 45/32/350 40/31/351 93/36/352
f 40/122/353 41/117/354 42/121/355 93/125/356
f 42/71/357 43/70/358 44/75/359 93/77/360
f 77/105/361 78/104/362 73/107/363 94/109/364
f 73/43/365 74/42/366 75/46/367 94/47/368
f 75/133/369 76/130/370 77/129/371 94/134/372
f 83/114/373 84/113/374 79/119/375 95/120/376
f 79/101/377 80/98/378 81/97/379 95/102/380
f 81/7/381 82/4/382 83/3/383 95/8/384
f 89/108/385 90/103/386 85/106/387 96/110/388
f 85/124/389 86/118/390 87/123/391 96/126/392
f 87/34/393 88/33/394 89/38/395 96/39/396
