# This file uses centimeters as units for non-parametric coordinates.

mtllib Small Triangle UVed.mtl
g default
v 282.876064 -0.493531 -0.757694
v 283.550737 -0.737560 -0.338707
v 283.550737 -0.496114 0.022648
v 283.550737 -0.069874 -0.062145
v 282.876064 0.053848 -0.530960
v 282.606486 0.206689 -1.674069
v 376.771346 -0.493531 -0.757694
v 377.040923 0.206689 -1.674069
v 376.771346 0.053848 -0.530960
v 376.096673 -0.069874 -0.062145
v 376.096673 -0.496114 0.022648
v 376.096673 -0.737560 -0.338707
v 282.883053 65.174424 -66.641807
v 282.606486 64.702295 -66.169680
v 282.883053 65.174424 -65.697553
v 283.550737 65.369976 -65.501994
v 283.550737 65.646538 -66.169680
v 283.550737 65.369976 -66.837366
v 376.764357 65.174424 -66.641807
v 376.096673 65.369976 -66.837366
v 376.096673 65.646538 -66.169680
v 376.096673 65.369976 -65.501994
v 376.764357 65.174424 -65.697553
v 377.040923 64.702295 -66.169680
v 282.876064 -0.493531 -131.581666
v 282.606486 0.206689 -130.665291
v 282.876064 0.053848 -131.808401
v 283.550737 -0.069874 -132.277215
v 283.550737 -0.496114 -132.362008
v 283.550737 -0.737560 -132.000653
v 376.771346 -0.493531 -131.581666
v 376.096673 -0.737560 -132.000653
v 376.096673 -0.496114 -132.362008
v 376.096673 -0.069874 -132.277215
v 376.771346 0.053848 -131.808401
v 377.040923 0.206689 -130.665291
v 283.000386 -0.382684 -0.251112
v 376.647024 -0.382684 -0.251112
v 283.005786 65.472946 -66.169680
v 376.641624 65.472946 -66.169680
v 283.000386 -0.382684 -132.088248
v 376.647024 -0.382684 -132.088248
vt 0.689438 0.504488
vt 0.692069 0.507932
vt 0.692069 0.992661
vt 0.689438 0.996104
vt 0.691495 0.503636
vt 0.689854 0.502585
vt 0.934434 0.750296
vt 0.691495 0.996956
vt 0.689854 0.998008
vt 0.936208 0.748522
vt 0.936208 0.752070
vt 0.937330 0.750296
vt 0.438415 0.992661
vt 0.435784 0.996104
vt 0.435784 0.504488
vt 0.438415 0.507932
vt 0.437841 0.996956
vt 0.436200 0.998008
vt 0.437841 0.503636
vt 0.436200 0.502585
vt 0.680780 0.750296
vt 0.682554 0.752070
vt 0.682554 0.748522
vt 0.683676 0.750296
vt 0.004406 0.498115
vt 0.001871 0.496541
vt 0.001871 0.004924
vt 0.004406 0.003350
vt 0.004406 0.499473
vt 0.002338 0.498444
vt 0.004406 0.001992
vt 0.002338 0.003021
vt 0.352179 0.498115
vt 0.352179 0.003350
vt 0.352179 0.499473
vt 0.352179 0.001992
vt 0.354715 0.496541
vt 0.354715 0.004924
vt 0.354248 0.498444
vt 0.354248 0.003021
vt 0.363359 0.252923
vt 0.363359 0.250414
vt 0.711132 0.250414
vt 0.711132 0.252923
vt 0.360850 0.252188
vt 0.361311 0.250414
vt 0.363359 0.247905
vt 0.711132 0.247905
vt 0.713641 0.252188
vt 0.713180 0.250414
vt 0.711132 0.498836
vt 0.363359 0.498836
vt 0.360824 0.497074
vt 0.360850 0.248640
vt 0.363359 0.001992
vt 0.711132 0.001992
vt 0.713641 0.248640
vt 0.713667 0.497074
vt 0.360824 0.003754
vt 0.713667 0.003754
vt 0.429557 0.852893
vt 0.427955 0.852893
vt 0.427955 0.505120
vt 0.429557 0.505120
vt 0.430021 0.855428
vt 0.428381 0.854961
vt 0.430021 0.502585
vt 0.428381 0.503052
vt 0.422193 0.852893
vt 0.420591 0.852893
vt 0.420591 0.505120
vt 0.422193 0.505120
vt 0.420126 0.855428
vt 0.421766 0.854961
vt 0.420126 0.502585
vt 0.421766 0.503052
vn -0.001744 -0.999997 0.001831
vn -0.340341 -0.940302 0.000548
vn -0.340341 -0.940302 -0.000556
vn -0.001744 -0.999997 -0.001831
vn -0.934700 -0.355419 0.003654
vn -0.999861 -0.011670 0.011937
vn -0.999861 -0.011670 -0.011936
vn -0.934700 -0.355419 -0.003645
vn -0.001864 0.705264 0.708943
vn -0.002844 0.195850 0.980630
vn 0.002844 0.195850 0.980630
vn 0.001864 0.705264 0.708943
vn -0.002845 -0.831887 0.554938
vn -0.001744 -0.999997 0.001831
vn 0.001744 -0.999997 0.001831
vn 0.002845 -0.831887 0.554938
vn -0.999861 -0.011670 0.011937
vn -0.930964 0.254514 0.261782
vn -0.928746 0.263489 0.260775
vn -0.999966 0.008303 -0.000000
vn -0.361773 0.658785 0.659638
vn -0.001864 0.705264 0.708943
vn -0.002780 0.709195 0.705007
vn -0.361429 0.660736 0.657873
vn 0.999861 -0.011670 0.011937
vn 0.934700 -0.355419 0.003654
vn 0.934700 -0.355419 -0.003646
vn 0.999861 -0.011670 -0.011936
vn 0.340341 -0.940302 0.000548
vn 0.001744 -0.999997 0.001831
vn 0.001744 -0.999997 -0.001831
vn 0.340341 -0.940302 -0.000556
vn 0.001864 0.705264 0.708943
vn 0.361773 0.658785 0.659638
vn 0.361429 0.660736 0.657873
vn 0.002780 0.709195 0.705007
vn 0.930964 0.254514 0.261782
vn 0.999861 -0.011670 0.011937
vn 0.999966 0.008303 0.000000
vn 0.928746 0.263489 0.260775
vn -0.999966 0.008303 -0.000000
vn -0.928745 0.263491 -0.260777
vn -0.930963 0.254516 -0.261783
vn -0.999861 -0.011670 -0.011936
vn -0.361427 0.660736 -0.657874
vn -0.002780 0.709195 -0.705007
vn -0.001864 0.705264 -0.708943
vn -0.361772 0.658785 -0.659639
vn -0.002780 0.709195 -0.705007
vn -0.001836 0.923796 -0.382882
vn 0.001836 0.923796 -0.382882
vn 0.002780 0.709195 -0.705007
vn -0.001836 0.923794 0.382885
vn -0.002780 0.709195 0.705007
vn 0.002780 0.709195 0.705007
vn 0.001836 0.923794 0.382885
vn 0.002780 0.709195 -0.705007
vn 0.361427 0.660736 -0.657874
vn 0.361772 0.658785 -0.659639
vn 0.001864 0.705264 -0.708943
vn 0.928745 0.263491 -0.260777
vn 0.999966 0.008303 0.000000
vn 0.999861 -0.011670 -0.011936
vn 0.930963 0.254516 -0.261783
vn -0.001744 -0.999997 -0.001831
vn -0.002845 -0.831891 -0.554932
vn 0.002845 -0.831891 -0.554932
vn 0.001744 -0.999997 -0.001831
vn -0.002844 0.195849 -0.980630
vn -0.001864 0.705264 -0.708943
vn 0.001864 0.705264 -0.708943
vn 0.002844 0.195849 -0.980630
vn -0.001864 0.705264 0.708943
vn 0.001864 0.705264 0.708943
vn 0.002780 0.709195 0.705007
vn -0.002780 0.709195 0.705007
vn -0.002780 0.709195 -0.705007
vn 0.002780 0.709195 -0.705007
vn 0.001864 0.705264 -0.708943
vn -0.001864 0.705264 -0.708943
vn 0.999861 -0.011670 0.011937
vn 0.999861 -0.011670 -0.011936
vn 0.999966 0.008303 0.000000
vn -0.999861 -0.011670 -0.011936
vn -0.999861 -0.011670 0.011937
vn -0.999966 0.008303 -0.000000
vn 0.001744 -0.999997 0.001831
vn -0.001744 -0.999997 0.001831
vn -0.001744 -0.999997 -0.001831
vn 0.001744 -0.999997 -0.001831
vn -0.930964 0.254514 0.261782
vn -0.999861 -0.011670 0.011937
vn -0.934700 -0.355419 0.003654
vn -0.968818 -0.094818 0.228912
vn -0.340341 -0.940302 0.000548
vn -0.001744 -0.999997 0.001831
vn -0.002845 -0.831887 0.554938
vn -0.454310 -0.800871 0.390139
vn -0.002844 0.195850 0.980630
vn -0.001864 0.705264 0.708943
vn -0.361773 0.658785 0.659638
vn -0.454272 0.290480 0.842175
vn 0.002845 -0.831887 0.554938
vn 0.001744 -0.999997 0.001831
vn 0.340341 -0.940302 0.000548
vn 0.454311 -0.800869 0.390141
vn 0.934700 -0.355419 0.003654
vn 0.999861 -0.011670 0.011937
vn 0.930964 0.254514 0.261782
vn 0.968818 -0.094818 0.228913
vn 0.361773 0.658785 0.659638
vn 0.001864 0.705264 0.708943
vn 0.002844 0.195850 0.980630
vn 0.454273 0.290481 0.842174
vn -0.001836 0.923796 -0.382882
vn -0.002780 0.709195 -0.705007
vn -0.361427 0.660736 -0.657874
vn -0.325302 0.857861 -0.397810
vn -0.928745 0.263491 -0.260777
vn -0.999966 0.008303 -0.000000
vn -0.928746 0.263489 0.260775
vn -0.887892 0.460052 -0.000004
vn -0.361429 0.660736 0.657873
vn -0.002780 0.709195 0.705007
vn -0.001836 0.923794 0.382885
vn -0.325300 0.857863 0.397807
vn 0.928746 0.263489 0.260775
vn 0.999966 0.008303 0.000000
vn 0.928745 0.263491 -0.260777
vn 0.887892 0.460053 -0.000005
vn 0.361427 0.660736 -0.657874
vn 0.002780 0.709195 -0.705007
vn 0.001836 0.923796 -0.382882
vn 0.325302 0.857862 -0.397809
vn 0.001836 0.923794 0.382885
vn 0.002780 0.709195 0.705007
vn 0.361429 0.660736 0.657873
vn 0.325300 0.857864 0.397806
vn -0.002845 -0.831891 -0.554932
vn -0.001744 -0.999997 -0.001831
vn -0.340341 -0.940302 -0.000556
vn -0.454314 -0.800869 -0.390139
vn -0.934700 -0.355419 -0.003645
vn -0.999861 -0.011670 -0.011936
vn -0.930963 0.254516 -0.261783
vn -0.968818 -0.094818 -0.228915
vn -0.361772 0.658785 -0.659639
vn -0.001864 0.705264 -0.708943
vn -0.002844 0.195849 -0.980630
vn -0.454267 0.290485 -0.842176
vn 0.930963 0.254516 -0.261783
vn 0.999861 -0.011670 -0.011936
vn 0.934700 -0.355419 -0.003646
vn 0.968817 -0.094817 -0.228917
vn 0.340341 -0.940302 -0.000556
vn 0.001744 -0.999997 -0.001831
vn 0.002845 -0.831891 -0.554932
vn 0.454314 -0.800869 -0.390138
vn 0.002844 0.195849 -0.980630
vn 0.001864 0.705264 -0.708943
vn 0.361772 0.658785 -0.659639
vn 0.454267 0.290483 -0.842176
s off
g Block6LOWTRIANGLE_pCube1
usemtl lambert12SG
f 2/25/1 1/26/2 25/27/3 30/28/4
f 1/1/5 6/2/6 26/3/7 25/4/8
f 4/61/9 3/62/10 11/63/11 10/64/12
f 3/29/13 2/25/14 12/33/15 11/35/16
f 6/2/17 5/5/18 15/10/19 14/7/20
f 5/59/21 4/55/22 16/47/23 15/54/24
f 8/13/25 7/14/26 31/15/27 36/16/28
f 7/37/29 12/33/30 32/34/31 31/38/32
f 10/56/33 9/60/34 23/57/35 22/48/36
f 9/17/37 8/13/38 24/21/39 23/22/40
f 14/7/41 13/11/42 27/8/43 26/3/44
f 13/45/45 18/41/46 28/52/47 27/53/48
f 18/41/49 17/42/50 21/43/51 20/44/52
f 17/42/53 16/47/54 22/48/55 21/43/56
f 20/44/57 19/49/58 35/58/59 34/51/60
f 19/23/61 24/21/62 36/16/63 35/19/64
f 30/28/65 29/31/66 33/36/67 32/34/68
f 29/69/69 28/70/70 34/71/71 33/72/72
f 4/55/73 10/56/74 22/48/75 16/47/76
f 18/41/77 20/44/78 34/51/79 28/52/80
f 8/13/81 36/16/82 24/21/83
f 26/3/84 6/2/85 14/7/86
f 12/33/87 2/25/88 30/28/89 32/34/90
f 5/5/91 6/2/92 1/1/93 37/6/94
f 1/26/95 2/25/96 3/29/97 37/30/98
f 3/62/99 4/61/100 5/65/101 37/66/102
f 11/35/103 12/33/104 7/37/105 38/39/106
f 7/14/107 8/13/108 9/17/109 38/18/110
f 9/67/111 10/64/112 11/63/113 38/68/114
f 17/42/115 18/41/116 13/45/117 39/46/118
f 13/11/119 14/7/120 15/10/121 39/12/122
f 15/54/123 16/47/124 17/42/125 39/46/126
f 23/22/127 24/21/128 19/23/129 40/24/130
f 19/49/131 20/44/132 21/43/133 40/50/134
f 21/43/135 22/48/136 23/57/137 40/50/138
f 29/31/139 30/28/140 25/27/141 41/32/142
f 25/4/143 26/3/144 27/8/145 41/9/146
f 27/73/147 28/70/148 29/69/149 41/74/150
f 35/19/151 36/16/152 31/15/153 42/20/154
f 31/38/155 32/34/156 33/36/157 42/40/158
f 33/72/159 34/71/160 35/75/161 42/76/162
