# This file uses centimeters as units for non-parametric coordinates.

mtllib Square Based Pyramid UVed.mtl
g default
v 317.352990 -0.716742 277.280036
v 268.957933 0.178645 325.282036
v 268.649646 0.178067 324.539433
v 268.692213 -0.434838 324.842784
v 269.235158 -0.716742 325.001465
v 269.395490 -0.434834 325.545722
v 269.702209 0.179226 325.589634
v 317.352990 0.179226 325.589634
v 317.352990 -0.427491 325.537351
v 317.352990 -0.716742 325.001465
v 268.957799 0.178261 229.015860
v 269.701747 0.178455 228.707937
v 269.395389 -0.434927 228.750851
v 269.235158 -0.716742 229.294336
v 268.692112 -0.434927 229.454016
v 268.649646 0.178067 229.759249
v 317.352990 0.178455 228.707937
v 317.352990 -0.427588 228.759255
v 317.352990 -0.716742 229.294336
v 268.649646 0.178067 277.280036
v 268.700483 -0.427633 277.280036
v 269.235158 -0.716742 277.280036
v 365.223710 0.179416 325.281771
v 364.481014 0.179226 325.589634
v 364.783960 -0.434655 325.545521
v 364.942287 -0.716742 325.001465
v 365.486782 -0.434652 324.842587
v 365.531346 0.179610 324.538520
v 365.531346 0.179610 277.280036
v 365.478579 -0.427447 277.280036
v 364.942287 -0.716742 277.280036
v 365.223845 0.179032 229.016128
v 365.531346 0.179610 229.760169
v 365.486883 -0.434741 229.454217
v 364.942287 -0.716742 229.294336
v 364.784057 -0.434745 228.751056
v 364.481469 0.178455 228.707937
v 317.874306 109.635965 276.752269
v 317.348081 109.220593 276.226039
v 316.823113 109.636501 276.752311
v 316.296210 109.220742 277.277583
v 316.823091 109.636233 277.803485
v 317.348081 109.220325 278.328472
v 317.874327 109.635696 277.803527
v 318.398639 109.220176 277.277584
v 268.881070 -0.310840 325.357375
v 268.880988 -0.310963 228.939555
v 365.298644 -0.310587 325.357211
v 365.298726 -0.310714 228.939723
v 317.349646 110.051560 277.278366
vt 0.299280 0.003900
vt 0.301591 0.003901
vt 0.153850 0.344506
vt 0.152213 0.343213
vt 0.300224 0.001992
vt 0.301825 0.002378
vt 0.150579 0.344507
vt 0.152216 0.345798
vt 0.152221 0.003900
vt 0.152221 0.002015
vt 0.002035 0.003900
vt 0.004348 0.003900
vt 0.003398 0.001992
vt 0.001798 0.002378
vt 0.295192 0.351311
vt 0.297505 0.351311
vt 0.444569 0.690618
vt 0.442932 0.691911
vt 0.296559 0.349400
vt 0.294957 0.349786
vt 0.444561 0.351311
vt 0.446204 0.691912
vt 0.444566 0.693205
vt 0.444561 0.349422
vt 0.592431 0.351311
vt 0.594746 0.351310
vt 0.593383 0.349400
vt 0.594984 0.349786
vt 0.003986 0.998008
vt 0.003487 0.996315
vt 0.153218 0.996315
vt 0.153218 0.997982
vt 0.001798 0.995821
vt 0.002385 0.997422
vt 0.003487 0.847817
vt 0.153218 0.847817
vt 0.301304 0.996315
vt 0.300811 0.998007
vt 0.001824 0.847817
vt 0.153218 0.698498
vt 0.003487 0.698498
vt 0.301304 0.847817
vt 0.302998 0.995820
vt 0.302413 0.997421
vt 0.001797 0.698995
vt 0.301304 0.698498
vt 0.003986 0.696807
vt 0.153218 0.696833
vt 0.302973 0.847817
vt 0.002385 0.697394
vt 0.300811 0.696808
vt 0.302998 0.698996
vt 0.302413 0.697395
vt 0.600759 0.351309
vt 0.603075 0.351311
vt 0.751337 0.690619
vt 0.749704 0.691913
vt 0.602121 0.349400
vt 0.600520 0.349786
vt 0.751353 0.351311
vt 0.752975 0.691911
vt 0.751342 0.693205
vt 0.751353 0.349423
vt 0.898003 0.351311
vt 0.900314 0.351311
vt 0.898946 0.349400
vt 0.900547 0.349786
vt 0.310528 0.343889
vt 0.308214 0.343890
vt 0.457158 0.003284
vt 0.458792 0.004578
vt 0.309575 0.345798
vt 0.307974 0.345412
vt 0.460429 0.003285
vt 0.458797 0.001992
vt 0.458807 0.343889
vt 0.458807 0.345775
vt 0.607769 0.343888
vt 0.605459 0.343889
vt 0.606401 0.345798
vt 0.608002 0.345412
vn -0.916486 0.399674 0.017729
vn -0.790582 0.498129 0.356157
vn -0.788841 0.503401 0.352587
vn -0.906946 0.421248 0.000016
vn -0.355715 0.496825 0.791601
vn -0.017691 0.396957 0.917667
vn 0.000033 0.418551 0.908193
vn -0.352165 0.502090 0.789864
vn -0.017691 0.396957 0.917667
vn -0.007324 -0.073923 0.997237
vn 0.000001 -0.078664 0.996901
vn 0.000000 0.393270 0.919423
vn -0.002896 -0.883927 0.467615
vn -0.004943 -0.999975 0.004977
vn 0.000000 -0.999983 0.005908
vn 0.000001 -0.883979 0.467527
vn -0.017669 0.398769 -0.916881
vn -0.355621 0.498273 -0.790733
vn -0.352064 0.503531 -0.788992
vn 0.000033 0.420349 -0.907362
vn -0.790391 0.498707 -0.355772
vn -0.916487 0.399673 -0.017682
vn -0.906946 0.421248 0.000016
vn -0.788648 0.503968 -0.352209
vn -0.916487 0.399673 -0.017682
vn -0.997399 -0.071703 -0.007345
vn -0.997077 -0.076403 0.000001
vn -0.918249 0.396003 0.000000
vn -0.468284 -0.883573 -0.002912
vn -0.004937 -0.999976 -0.004948
vn -0.005857 -0.999983 0.000000
vn -0.468156 -0.883646 0.000001
vn 0.000000 -0.999983 -0.005874
vn 0.000001 -0.883757 -0.467946
vn 0.002948 -0.883614 -0.468207
vn 0.004995 -0.999975 -0.004961
vn 0.000001 -0.077157 -0.997019
vn 0.000000 0.395093 -0.918641
vn 0.017764 0.398770 -0.916879
vn 0.007370 -0.072601 -0.997334
vn 0.017786 0.396959 0.917664
vn 0.356489 0.495661 0.791982
vn 0.352929 0.500950 0.790247
vn 0.000033 0.418551 0.908193
vn 0.792323 0.495226 0.356335
vn 0.918057 0.396051 0.017772
vn 0.908608 0.417650 0.000016
vn 0.790590 0.500513 0.352781
vn 0.918057 0.396051 0.017772
vn 0.997170 -0.074824 0.007349
vn 0.996841 -0.079423 0.000001
vn 0.919813 0.392356 0.000000
vn 0.467543 -0.883965 0.002933
vn 0.005001 -0.999975 0.004990
vn 0.005925 -0.999982 0.000000
vn 0.467323 -0.884087 0.000001
vn 0.918058 0.396050 -0.017725
vn 0.792135 0.495806 -0.355947
vn 0.790401 0.501081 -0.352399
vn 0.908608 0.417650 0.000016
vn 0.356395 0.497110 -0.791116
vn 0.017764 0.398770 -0.916879
vn 0.000033 0.420349 -0.907362
vn 0.352826 0.502391 -0.789377
vn 0.918058 0.396050 -0.017725
vn 0.908608 0.417650 0.000016
vn 0.919813 0.392356 0.000000
vn -0.017669 0.398769 -0.916881
vn 0.000033 0.420349 -0.907362
vn 0.000000 0.395093 -0.918641
vn -0.916486 0.399674 0.017729
vn -0.906946 0.421248 0.000016
vn -0.918249 0.396003 0.000000
vn 0.017786 0.396959 0.917664
vn 0.000033 0.418551 0.908193
vn 0.000000 0.393270 0.919423
vn -0.918249 0.396003 0.000000
vn -0.906946 0.421248 0.000016
vn -0.916487 0.399673 -0.017682
vn 0.919813 0.392356 0.000000
vn 0.908608 0.417650 0.000016
vn 0.918057 0.396051 0.017772
vn -0.017691 0.396957 0.917667
vn 0.000000 0.393270 0.919423
vn 0.000033 0.418551 0.908193
vn 0.000000 0.395093 -0.918641
vn 0.000033 0.420349 -0.907362
vn 0.017764 0.398770 -0.916879
vn 0.005925 -0.999982 0.000000
vn 0.000000 -1.000000 0.000000
vn 0.000000 -0.999983 -0.005874
vn 0.004995 -0.999975 -0.004961
vn 0.000000 -0.999983 0.005908
vn 0.000000 -1.000000 0.000000
vn 0.005925 -0.999982 0.000000
vn 0.005001 -0.999975 0.004990
vn 0.000000 -0.999983 0.005908
vn -0.004943 -0.999975 0.004977
vn -0.005857 -0.999983 0.000000
vn 0.000000 -1.000000 0.000000
vn 0.000000 -0.999983 -0.005874
vn 0.000000 -1.000000 0.000000
vn -0.005857 -0.999983 0.000000
vn -0.004937 -0.999976 -0.004948
vn 0.000000 0.393270 0.919423
vn 0.000001 -0.078664 0.996901
vn 0.007363 -0.074115 0.997223
vn 0.017786 0.396959 0.917664
vn 0.000001 -0.883979 0.467527
vn 0.000000 -0.999983 0.005908
vn 0.005001 -0.999975 0.004990
vn 0.002946 -0.883837 0.467786
vn -0.004937 -0.999976 -0.004948
vn -0.002898 -0.883708 -0.468030
vn 0.000001 -0.883757 -0.467946
vn 0.000000 -0.999983 -0.005874
vn -0.007331 -0.072406 -0.997348
vn -0.017669 0.398769 -0.916881
vn 0.000000 0.395093 -0.918641
vn 0.000001 -0.077157 -0.997019
vn -0.004943 -0.999975 0.004977
vn -0.468374 -0.883525 0.002937
vn -0.468156 -0.883646 0.000001
vn -0.005857 -0.999983 0.000000
vn -0.997393 -0.071787 0.007364
vn -0.916486 0.399674 0.017729
vn -0.918249 0.396003 0.000000
vn -0.997077 -0.076403 0.000001
vn 0.919813 0.392356 0.000000
vn 0.996841 -0.079423 0.000001
vn 0.997176 -0.074739 -0.007330
vn 0.918058 0.396050 -0.017725
vn 0.467323 -0.884087 0.000001
vn 0.005925 -0.999982 0.000000
vn 0.004995 -0.999975 -0.004961
vn 0.467449 -0.884015 -0.002908
vn -0.007324 -0.073923 0.997237
vn -0.017691 0.396957 0.917667
vn -0.355715 0.496825 0.791601
vn -0.349958 0.147987 0.925002
vn -0.790582 0.498129 0.356157
vn -0.916486 0.399674 0.017729
vn -0.997393 -0.071787 0.007364
vn -0.924485 0.149257 0.350785
vn -0.468374 -0.883525 0.002937
vn -0.004943 -0.999975 0.004977
vn -0.002896 -0.883927 0.467615
vn -0.444463 -0.777632 0.444681
vn -0.997399 -0.071703 -0.007345
vn -0.916487 0.399673 -0.017682
vn -0.790391 0.498707 -0.355772
vn -0.924463 0.150123 -0.350473
vn -0.355621 0.498273 -0.790733
vn -0.017669 0.398769 -0.916881
vn -0.007331 -0.072406 -0.997348
vn -0.350193 0.149701 -0.924638
vn -0.002898 -0.883708 -0.468030
vn -0.004937 -0.999976 -0.004948
vn -0.468284 -0.883573 -0.002912
vn -0.444844 -0.777273 -0.444928
vn 0.997170 -0.074824 0.007349
vn 0.918057 0.396051 0.017772
vn 0.792323 0.495226 0.356335
vn 0.925213 0.145835 0.350304
vn 0.356489 0.495661 0.791982
vn 0.017786 0.396959 0.917664
vn 0.007363 -0.074115 0.997223
vn 0.350570 0.146258 0.925046
vn 0.002946 -0.883837 0.467786
vn 0.005001 -0.999975 0.004990
vn 0.467543 -0.883965 0.002933
vn 0.443978 -0.778353 0.443903
vn 0.007370 -0.072601 -0.997334
vn 0.017764 0.398770 -0.916879
vn 0.356395 0.497110 -0.791116
vn 0.350828 0.147970 -0.924675
vn 0.792135 0.495806 -0.355947
vn 0.918058 0.396050 -0.017725
vn 0.997176 -0.074739 -0.007330
vn 0.925197 0.146683 -0.349993
vn 0.467449 -0.884015 -0.002908
vn 0.004995 -0.999975 -0.004961
vn 0.002948 -0.883614 -0.468207
vn 0.444364 -0.777992 -0.444150
vn 0.790590 0.500513 0.352781
vn 0.908608 0.417650 0.000016
vn 0.790401 0.501081 -0.352399
vn 0.621130 0.783707 0.000165
vn 0.352826 0.502391 -0.789377
vn 0.000033 0.420349 -0.907362
vn -0.352064 0.503531 -0.788992
vn 0.000375 0.784822 -0.619721
vn -0.788648 0.503968 -0.352209
vn -0.906946 0.421248 0.000016
vn -0.788841 0.503401 0.352587
vn -0.619258 0.785188 0.000175
vn -0.352165 0.502090 0.789864
vn 0.000033 0.418551 0.908193
vn 0.352929 0.500950 0.790247
vn 0.000375 0.784081 0.620658
s off
g Block7HIGHTRIANGLE_pCube1
usemtl lambert11SG
f 3/1/1 2/2/2 42/3/3 41/4/4
f 2/54/5 7/55/6 43/56/7 42/57/8
f 7/55/9 6/58/10 9/63/11 8/60/12
f 6/29/13 5/30/14 10/31/15 9/32/16
f 12/68/17 11/69/18 40/70/19 39/71/20
f 11/11/21 16/12/22 41/4/23 40/7/24
f 16/12/25 15/13/26 21/10/27 20/9/28
f 15/45/29 14/41/30 22/35/31 21/39/32
f 19/40/33 18/48/34 36/51/35 35/46/36
f 18/77/37 17/76/38 37/79/39 36/80/40
f 24/64/41 23/65/42 44/61/43 43/56/44
f 23/15/45 28/16/46 45/17/47 44/18/48
f 28/16/49 27/19/50 30/24/51 29/21/52
f 27/43/53 26/37/54 31/42/55 30/49/56
f 33/25/57 32/26/58 38/22/59 45/17/60
f 32/78/61 37/79/62 39/71/63 38/74/64
f 33/25/65 45/17/66 29/21/67
f 12/68/68 39/71/69 17/76/70
f 3/1/71 41/4/72 20/9/73
f 24/64/74 43/56/75 8/60/76
f 20/9/77 41/4/78 16/12/79
f 29/21/80 45/17/81 28/16/82
f 7/55/83 8/60/84 43/56/85
f 17/76/86 39/71/87 37/79/88
f 31/42/89 1/36/90 19/40/91 35/46/92
f 10/31/93 1/36/94 31/42/95 26/37/96
f 10/31/97 5/30/98 22/35/99 1/36/100
f 19/40/101 1/36/102 22/35/103 14/41/104
f 8/60/105 9/63/106 25/66/107 24/64/108
f 9/32/109 10/31/110 26/37/111 25/38/112
f 14/41/113 13/47/114 18/48/115 19/40/116
f 13/72/117 12/68/118 17/76/119 18/77/120
f 5/30/121 4/33/122 21/39/123 22/35/124
f 4/5/125 3/1/126 20/9/127 21/10/128
f 29/21/129 30/24/130 34/27/131 33/25/132
f 30/49/133 31/42/134 35/46/135 34/52/136
f 6/58/137 7/55/138 2/54/139 46/59/140
f 2/2/141 3/1/142 4/5/143 46/6/144
f 4/33/145 5/30/146 6/29/147 46/34/148
f 15/13/149 16/12/150 11/11/151 47/14/152
f 11/69/153 12/68/154 13/72/155 47/73/156
f 13/47/157 14/41/158 15/45/159 47/50/160
f 27/19/161 28/16/162 23/15/163 48/20/164
f 23/65/165 24/64/166 25/66/167 48/67/168
f 25/38/169 26/37/170 27/43/171 48/44/172
f 36/80/173 37/79/174 32/78/175 49/81/176
f 32/26/177 33/25/178 34/27/179 49/28/180
f 34/52/181 35/46/182 36/51/183 49/53/184
f 44/18/185 45/17/186 38/22/187 50/23/188
f 38/74/189 39/71/190 40/70/191 50/75/192
f 40/7/193 41/4/194 42/3/195 50/8/196
f 42/57/197 43/56/198 44/61/199 50/62/200
