# This file uses centimeters as units for non-parametric coordinates.

mtllib Block5SQUARE.mtl
g default
v -0.500000 -0.500000 0.500000
v 0.500000 -0.500000 0.500000
v -0.500000 0.500000 0.500000
v 0.500000 0.500000 0.500000
v -0.500000 0.500000 -0.500000
v 0.500000 0.500000 -0.500000
v -0.500000 -0.500000 -0.500000
v 0.500000 -0.500000 -0.500000
vt 0.375000 0.000000
vt 0.625000 0.000000
vt 0.375000 0.250000
vt 0.625000 0.250000
vt 0.375000 0.500000
vt 0.625000 0.500000
vt 0.375000 0.750000
vt 0.625000 0.750000
vt 0.375000 1.000000
vt 0.625000 1.000000
vt 0.875000 0.000000
vt 0.875000 0.250000
vt 0.125000 0.000000
vt 0.125000 0.250000
vn 0.000000 0.000000 1.000000
vn 0.000000 0.000000 1.000000
vn 0.000000 0.000000 1.000000
vn 0.000000 0.000000 1.000000
vn 0.000000 1.000000 0.000000
vn 0.000000 1.000000 0.000000
vn 0.000000 1.000000 0.000000
vn 0.000000 1.000000 0.000000
vn 0.000000 0.000000 -1.000000
vn 0.000000 0.000000 -1.000000
vn 0.000000 0.000000 -1.000000
vn 0.000000 0.000000 -1.000000
vn 0.000000 -1.000000 0.000000
vn 0.000000 -1.000000 0.000000
vn 0.000000 -1.000000 0.000000
vn 0.000000 -1.000000 0.000000
vn 1.000000 0.000000 0.000000
vn 1.000000 0.000000 0.000000
vn 1.000000 0.000000 0.000000
vn 1.000000 0.000000 0.000000
vn -1.000000 0.000000 0.000000
vn -1.000000 0.000000 0.000000
vn -1.000000 0.000000 0.000000
vn -1.000000 0.000000 0.000000
s off
g pCube1
usemtl initialShadingGroup
f 1/1/1 2/2/2 4/4/3 3/3/4
f 3/3/5 4/4/6 6/6/7 5/5/8
f 5/5/9 6/6/10 8/8/11 7/7/12
f 7/7/13 8/8/14 2/10/15 1/9/16
f 2/2/17 8/11/18 6/12/19 4/4/20
f 7/13/21 1/1/22 3/3/23 5/14/24
g default
v -99.414268 -99.414268 98.000198
v -98.000198 -100.000000 98.000198
v -98.000198 -99.414268 99.414268
v -98.000198 -98.000198 100.000000
v -99.414268 -98.000198 99.414268
v -100.000000 -98.000198 98.000198
v 99.414268 -99.414268 98.000198
v 100.000000 -98.000198 98.000198
v 99.414268 -98.000198 99.414268
v 98.000198 -98.000198 100.000000
v 98.000198 -99.414268 99.414268
v 98.000198 -100.000000 98.000198
v -99.414268 99.414268 98.000198
v -100.000000 98.000198 98.000198
v -99.414268 98.000198 99.414268
v -98.000198 98.000198 100.000000
v -98.000198 99.414268 99.414268
v -98.000198 100.000000 98.000198
v 99.414268 99.414268 98.000198
v 98.000198 100.000000 98.000198
v 98.000198 99.414268 99.414268
v 98.000198 98.000198 100.000000
v 99.414268 98.000198 99.414268
v 100.000000 98.000198 98.000198
v -99.414268 98.000198 -99.414268
v -100.000000 98.000198 -98.000198
v -99.414268 99.414268 -98.000198
v -98.000198 100.000000 -98.000198
v -98.000198 99.414268 -99.414268
v -98.000198 98.000198 -100.000000
v 99.414268 98.000198 -99.414268
v 98.000198 98.000198 -100.000000
v 98.000198 99.414268 -99.414268
v 98.000198 100.000000 -98.000198
v 99.414268 99.414268 -98.000198
v 100.000000 98.000198 -98.000198
v -99.414268 -99.414268 -98.000198
v -100.000000 -98.000198 -98.000198
v -99.414268 -98.000198 -99.414268
v -98.000198 -98.000198 -100.000000
v -98.000198 -99.414268 -99.414268
v -98.000198 -100.000000 -98.000198
v 99.414268 -99.414268 -98.000198
v 98.000198 -100.000000 -98.000198
v 98.000198 -99.414268 -99.414268
v 98.000198 -98.000198 -100.000000
v 99.414268 -98.000198 -99.414268
v 100.000000 -98.000198 -98.000198
v -99.154381 -99.154381 99.154381
v 99.154381 -99.154381 99.154381
v -99.154381 99.154381 99.154381
v 99.154381 99.154381 99.154381
v -99.154381 99.154381 -99.154381
v 99.154381 99.154381 -99.154381
v -99.154381 -99.154381 -99.154381
v 99.154381 -99.154381 -99.154381
vt 0.377500 0.997500
vt 0.377500 0.002500
vt 0.622500 0.997500
vt 0.627500 0.002500
vt 0.377500 0.247500
vt 0.622500 0.247500
vt 0.627500 0.247500
vt 0.127500 0.002500
vt 0.377500 0.497500
vt 0.622500 0.497500
vt 0.872500 0.247500
vt 0.872500 0.002500
vt 0.622500 0.752500
vt 0.377500 0.747500
vt 0.622500 0.747500
vt 0.622500 0.002500
vt 0.377500 0.252500
vt 0.622500 0.252500
vt 0.377500 0.502500
vt 0.622500 0.502500
vt 0.377500 0.752500
vt 0.372500 0.002500
vt 0.372500 0.247500
vt 0.127500 0.247500
vt 0.375000 0.998474
vt 0.373474 -0.000000
vt 0.376526 -0.000000
vt 0.376526 1.000000
vt 0.375000 0.002492
vt 0.626526 -0.000000
vt 0.625000 0.998474
vt 0.625000 0.002492
vt 0.623474 1.000000
vt 0.623474 -0.000000
vt 0.373474 0.250000
vt 0.375000 0.251526
vt 0.375000 0.247508
vt 0.377492 0.250000
vt 0.625000 0.251526
vt 0.626526 0.250000
vt 0.622508 0.250000
vt 0.625000 0.247508
vt 0.125000 0.248474
vt 0.375000 0.501526
vt 0.375000 0.498474
vt 0.126526 0.250000
vt 0.377492 0.500000
vt 0.625000 0.501526
vt 0.875000 0.248474
vt 0.622508 0.500000
vt 0.873474 0.250000
vt 0.625000 0.498474
vt 0.126526 -0.000000
vt 0.375000 0.751526
vt 0.375000 0.748474
vt 0.125000 0.001526
vt 0.377492 0.750000
vt 0.625000 0.751526
vt 0.873474 -0.000000
vt 0.622508 0.750000
vt 0.875000 0.001526
vt 0.625000 0.748474
vt 0.375000 1.000000
vt 0.375000 0.000000
vt 0.625000 0.000000
vt 0.625000 1.000000
vt 0.375000 0.250000
vt 0.625000 0.250000
vt 0.125000 0.250000
vt 0.375000 0.500000
vt 0.625000 0.500000
vt 0.875000 0.250000
vt 0.125000 0.000000
vt 0.375000 0.750000
vt 0.625000 0.750000
vt 0.875000 0.000000
vn -0.002960 -0.999991 0.002960
vn -0.382481 -0.923962 0.001836
vn -0.382481 -0.923962 -0.001836
vn -0.002960 -0.999991 -0.002960
vn -0.923963 -0.382478 0.001835
vn -0.999991 -0.002960 0.002960
vn -0.999991 -0.002960 -0.002960
vn -0.923963 -0.382478 -0.001835
vn -0.002960 -0.002960 0.999991
vn -0.001836 -0.382481 0.923962
vn 0.001836 -0.382481 0.923962
vn 0.002960 -0.002960 0.999991
vn -0.001835 -0.923963 0.382478
vn 0.002960 -0.999991 0.002960
vn 0.001835 -0.923963 0.382478
vn -0.923962 -0.001836 0.382481
vn -0.923962 0.001836 0.382481
vn -0.999991 0.002960 0.002960
vn -0.382478 -0.001835 0.923963
vn -0.002960 0.002960 0.999991
vn -0.382478 0.001835 0.923963
vn 0.999991 -0.002960 0.002960
vn 0.923963 -0.382478 0.001835
vn 0.923963 -0.382478 -0.001835
vn 0.999991 -0.002960 -0.002960
vn 0.382481 -0.923962 0.001836
vn 0.002960 -0.999991 -0.002960
vn 0.382481 -0.923962 -0.001836
vn 0.382478 -0.001835 0.923963
vn 0.382478 0.001835 0.923963
vn 0.002960 0.002960 0.999991
vn 0.923962 -0.001836 0.382481
vn 0.999991 0.002960 0.002960
vn 0.923962 0.001836 0.382481
vn -0.923963 0.382478 0.001835
vn -0.923963 0.382478 -0.001835
vn -0.999991 0.002960 -0.002960
vn -0.382481 0.923962 0.001836
vn -0.002960 0.999991 0.002960
vn -0.002960 0.999991 -0.002960
vn -0.382481 0.923962 -0.001836
vn -0.001835 0.923963 0.382478
vn 0.001835 0.923963 0.382478
vn 0.002960 0.999991 0.002960
vn -0.001836 0.382481 0.923962
vn 0.001836 0.382481 0.923962
vn 0.382481 0.923962 0.001836
vn 0.382481 0.923962 -0.001836
vn 0.002960 0.999991 -0.002960
vn 0.923963 0.382478 0.001835
vn 0.999991 0.002960 -0.002960
vn 0.923963 0.382478 -0.001835
vn -0.923962 0.001836 -0.382481
vn -0.923962 -0.001836 -0.382481
vn -0.382478 0.001835 -0.923963
vn -0.002960 0.002960 -0.999991
vn -0.002960 -0.002960 -0.999991
vn -0.382478 -0.001835 -0.923963
vn -0.001836 0.382481 -0.923962
vn 0.001836 0.382481 -0.923962
vn 0.002960 0.002960 -0.999991
vn -0.001835 0.923963 -0.382478
vn 0.001835 0.923963 -0.382478
vn 0.382478 0.001835 -0.923963
vn 0.382478 -0.001835 -0.923963
vn 0.002960 -0.002960 -0.999991
vn 0.923962 0.001836 -0.382481
vn 0.923962 -0.001836 -0.382481
vn -0.001835 -0.923963 -0.382478
vn 0.001835 -0.923963 -0.382478
vn -0.001836 -0.382481 -0.923962
vn 0.001836 -0.382481 -0.923962
vn -0.887918 -0.325273 0.325267
vn -0.325267 -0.887918 0.325273
vn -0.325273 -0.325267 0.887918
vn 0.325267 -0.887918 0.325274
vn 0.887918 -0.325274 0.325267
vn 0.325274 -0.325267 0.887918
vn -0.325267 0.887918 0.325274
vn -0.887918 0.325274 0.325267
vn -0.325274 0.325267 0.887918
vn 0.887918 0.325273 0.325267
vn 0.325267 0.887918 0.325273
vn 0.325273 0.325267 0.887918
vn -0.325273 0.325267 -0.887918
vn -0.887918 0.325273 -0.325267
vn -0.325267 0.887918 -0.325273
vn 0.887918 0.325274 -0.325267
vn 0.325274 0.325267 -0.887918
vn 0.325267 0.887918 -0.325274
vn -0.325267 -0.887918 -0.325274
vn -0.887918 -0.325274 -0.325267
vn -0.325274 -0.325267 -0.887918
vn 0.887918 -0.325273 -0.325267
vn 0.325267 -0.887918 -0.325273
vn 0.325273 -0.325267 -0.887918
s 1
g pCube2
usemtl initialShadingGroup
f 10/15/25 9/39/26 45/68/27 50/35/28
s 2
f 9/40/29 14/36/30 46/22/31 45/67/32
s 3
f 12/16/33 11/41/34 19/48/35 18/30/36
s 1
f 11/42/37 10/15/25 20/17/38 19/47/39
s 2
f 14/36/30 13/43/40 23/51/41 22/37/42
s 3
f 13/43/43 12/16/33 24/19/44 23/51/45
s 4
f 16/18/46 15/44/47 51/73/48 56/26/49
s 1
f 15/45/50 20/17/38 52/27/51 51/72/52
s 3
f 18/30/36 17/46/53 31/56/54 30/20/55
s 4
f 17/46/56 16/18/46 32/21/57 31/56/58
s 2
f 22/37/42 21/49/59 35/60/60 34/38/61
s 5
f 21/50/62 26/31/63 36/23/64 35/59/65
f 26/31/63 25/52/66 29/55/67 28/32/68
s 3
f 25/52/69 24/19/44 30/20/55 29/55/70
s 5
f 28/32/68 27/53/71 43/66/72 42/24/73
s 4
f 27/54/74 32/21/57 44/25/75 43/65/76
s 2
f 34/38/61 33/57/77 47/70/78 46/22/31
s 6
f 33/58/79 38/33/80 48/28/81 47/69/82
f 38/33/80 37/61/83 41/64/84 40/34/85
s 5
f 37/61/86 36/23/64 42/24/73 41/64/87
s 6
f 40/34/85 39/62/88 55/76/89 54/29/90
s 4
f 39/63/91 44/25/75 56/26/49 55/75/92
s 1
f 50/35/28 49/71/93 53/74/94 52/27/51
s 6
f 49/71/95 48/28/81 54/29/90 53/74/96
s 3
f 12/16/33 18/30/36 30/20/55 24/19/44
s 5
f 26/31/63 28/32/68 42/24/73 36/23/64
s 6
f 38/33/80 40/34/85 54/29/90 48/28/81
s 1
f 50/35/28 52/27/51 20/17/38 10/15/25
s 4
f 16/18/46 56/26/49 44/25/75 32/21/57
s 2
f 46/22/31 14/36/30 22/37/42 34/38/61
f 13/43/40 14/36/30 9/40/29 57/78/97
s 1
f 9/39/26 10/15/25 11/42/37 57/77/98
s 3
f 11/41/34 12/16/33 13/43/43 57/78/99
s 1
f 19/47/39 20/17/38 15/45/50 58/80/100
s 4
f 15/44/47 16/18/46 17/46/56 58/79/101
s 3
f 17/46/53 18/30/36 19/48/35 58/79/102
s 5
f 25/52/66 26/31/63 21/50/62 59/81/103
s 2
f 21/49/59 22/37/42 23/51/41 59/81/104
s 3
f 23/51/45 24/19/44 25/52/69 59/81/105
s 4
f 31/56/58 32/21/57 27/54/74 60/82/106
s 5
f 27/53/71 28/32/68 29/55/67 60/82/107
s 3
f 29/55/70 30/20/55 31/56/54 60/82/108
s 6
f 37/61/83 38/33/80 33/58/79 61/84/109
s 2
f 33/57/77 34/38/61 35/60/60 61/83/110
s 5
f 35/59/65 36/23/64 37/61/86 61/84/111
s 4
f 43/65/76 44/25/75 39/63/91 62/86/112
s 6
f 39/62/88 40/34/85 41/64/84 62/85/113
s 5
f 41/64/87 42/24/73 43/66/72 62/85/114
s 1
f 49/71/93 50/35/28 45/68/27 63/88/115
s 2
f 45/67/32 46/22/31 47/70/78 63/87/116
s 6
f 47/69/82 48/28/81 49/71/95 63/88/117
s 4
f 55/75/92 56/26/49 51/73/48 64/90/118
s 1
f 51/72/52 52/27/51 53/74/94 64/89/119
s 6
f 53/74/96 54/29/90 55/76/89 64/89/120
g default
v -99.414268 -99.414268 98.000198
v -98.000198 -100.000000 98.000198
v -98.000198 -99.414268 99.414268
v -98.000198 -98.000198 100.000000
v -99.414268 -98.000198 99.414268
v -100.000000 -98.000198 98.000198
v 99.414268 -99.414268 98.000198
v 100.000000 -98.000198 98.000198
v 99.414268 -98.000198 99.414268
v 98.000198 -98.000198 100.000000
v 98.000198 -99.414268 99.414268
v 98.000198 -100.000000 98.000198
v -99.414268 99.414268 98.000198
v -100.000000 98.000198 98.000198
v -99.414268 98.000198 99.414268
v -98.000198 98.000198 100.000000
v -98.000198 99.414268 99.414268
v -98.000198 100.000000 98.000198
v 99.414268 99.414268 98.000198
v 98.000198 100.000000 98.000198
v 98.000198 99.414268 99.414268
v 98.000198 98.000198 100.000000
v 99.414268 98.000198 99.414268
v 100.000000 98.000198 98.000198
v -99.414268 98.000198 -99.414268
v -100.000000 98.000198 -98.000198
v -99.414268 99.414268 -98.000198
v -98.000198 100.000000 -98.000198
v -98.000198 99.414268 -99.414268
v -98.000198 98.000198 -100.000000
v 99.414268 98.000198 -99.414268
v 98.000198 98.000198 -100.000000
v 98.000198 99.414268 -99.414268
v 98.000198 100.000000 -98.000198
v 99.414268 99.414268 -98.000198
v 100.000000 98.000198 -98.000198
v -99.414268 -99.414268 -98.000198
v -100.000000 -98.000198 -98.000198
v -99.414268 -98.000198 -99.414268
v -98.000198 -98.000198 -100.000000
v -98.000198 -99.414268 -99.414268
v -98.000198 -100.000000 -98.000198
v 99.414268 -99.414268 -98.000198
v 98.000198 -100.000000 -98.000198
v 98.000198 -99.414268 -99.414268
v 98.000198 -98.000198 -100.000000
v 99.414268 -98.000198 -99.414268
v 100.000000 -98.000198 -98.000198
v -99.154381 -99.154381 99.154381
v 99.154381 -99.154381 99.154381
v -99.154381 99.154381 99.154381
v 99.154381 99.154381 99.154381
v -99.154381 99.154381 -99.154381
v 99.154381 99.154381 -99.154381
v -99.154381 -99.154381 -99.154381
v 99.154381 -99.154381 -99.154381
vt 0.377500 0.997500
vt 0.377500 0.002500
vt 0.622500 0.997500
vt 0.627500 0.002500
vt 0.377500 0.247500
vt 0.622500 0.247500
vt 0.627500 0.247500
vt 0.127500 0.002500
vt 0.377500 0.497500
vt 0.622500 0.497500
vt 0.872500 0.247500
vt 0.872500 0.002500
vt 0.622500 0.752500
vt 0.377500 0.747500
vt 0.622500 0.747500
vt 0.622500 0.002500
vt 0.377500 0.252500
vt 0.622500 0.252500
vt 0.377500 0.502500
vt 0.622500 0.502500
vt 0.377500 0.752500
vt 0.372500 0.002500
vt 0.372500 0.247500
vt 0.127500 0.247500
vt 0.375000 0.998474
vt 0.373474 -0.000000
vt 0.376526 -0.000000
vt 0.376526 1.000000
vt 0.375000 0.002492
vt 0.626526 -0.000000
vt 0.625000 0.998474
vt 0.625000 0.002492
vt 0.623474 1.000000
vt 0.623474 -0.000000
vt 0.373474 0.250000
vt 0.375000 0.251526
vt 0.375000 0.247508
vt 0.377492 0.250000
vt 0.625000 0.251526
vt 0.626526 0.250000
vt 0.622508 0.250000
vt 0.625000 0.247508
vt 0.125000 0.248474
vt 0.375000 0.501526
vt 0.375000 0.498474
vt 0.126526 0.250000
vt 0.377492 0.500000
vt 0.625000 0.501526
vt 0.875000 0.248474
vt 0.622508 0.500000
vt 0.873474 0.250000
vt 0.625000 0.498474
vt 0.126526 -0.000000
vt 0.375000 0.751526
vt 0.375000 0.748474
vt 0.125000 0.001526
vt 0.377492 0.750000
vt 0.625000 0.751526
vt 0.873474 -0.000000
vt 0.622508 0.750000
vt 0.875000 0.001526
vt 0.625000 0.748474
vt 0.375000 1.000000
vt 0.375000 0.000000
vt 0.625000 0.000000
vt 0.625000 1.000000
vt 0.375000 0.250000
vt 0.625000 0.250000
vt 0.125000 0.250000
vt 0.375000 0.500000
vt 0.625000 0.500000
vt 0.875000 0.250000
vt 0.125000 0.000000
vt 0.375000 0.750000
vt 0.625000 0.750000
vt 0.875000 0.000000
vn -0.002960 -0.999991 0.002960
vn -0.382481 -0.923962 0.001836
vn -0.382481 -0.923962 -0.001836
vn -0.002960 -0.999991 -0.002960
vn -0.923963 -0.382478 0.001835
vn -0.999991 -0.002960 0.002960
vn -0.999991 -0.002960 -0.002960
vn -0.923963 -0.382478 -0.001835
vn -0.002960 -0.002960 0.999991
vn -0.001836 -0.382481 0.923962
vn 0.001836 -0.382481 0.923962
vn 0.002960 -0.002960 0.999991
vn -0.001835 -0.923963 0.382478
vn 0.002960 -0.999991 0.002960
vn 0.001835 -0.923963 0.382478
vn -0.923962 -0.001836 0.382481
vn -0.923962 0.001836 0.382481
vn -0.999991 0.002960 0.002960
vn -0.382478 -0.001835 0.923963
vn -0.002960 0.002960 0.999991
vn -0.382478 0.001835 0.923963
vn 0.999991 -0.002960 0.002960
vn 0.923963 -0.382478 0.001835
vn 0.923963 -0.382478 -0.001835
vn 0.999991 -0.002960 -0.002960
vn 0.382481 -0.923962 0.001836
vn 0.002960 -0.999991 -0.002960
vn 0.382481 -0.923962 -0.001836
vn 0.382478 -0.001835 0.923963
vn 0.382478 0.001835 0.923963
vn 0.002960 0.002960 0.999991
vn 0.923962 -0.001836 0.382481
vn 0.999991 0.002960 0.002960
vn 0.923962 0.001836 0.382481
vn -0.923963 0.382478 0.001835
vn -0.923963 0.382478 -0.001835
vn -0.999991 0.002960 -0.002960
vn -0.382481 0.923962 0.001836
vn -0.002960 0.999991 0.002960
vn -0.002960 0.999991 -0.002960
vn -0.382481 0.923962 -0.001836
vn -0.001835 0.923963 0.382478
vn 0.001835 0.923963 0.382478
vn 0.002960 0.999991 0.002960
vn -0.001836 0.382481 0.923962
vn 0.001836 0.382481 0.923962
vn 0.382481 0.923962 0.001836
vn 0.382481 0.923962 -0.001836
vn 0.002960 0.999991 -0.002960
vn 0.923963 0.382478 0.001835
vn 0.999991 0.002960 -0.002960
vn 0.923963 0.382478 -0.001835
vn -0.923962 0.001836 -0.382481
vn -0.923962 -0.001836 -0.382481
vn -0.382478 0.001835 -0.923963
vn -0.002960 0.002960 -0.999991
vn -0.002960 -0.002960 -0.999991
vn -0.382478 -0.001835 -0.923963
vn -0.001836 0.382481 -0.923962
vn 0.001836 0.382481 -0.923962
vn 0.002960 0.002960 -0.999991
vn -0.001835 0.923963 -0.382478
vn 0.001835 0.923963 -0.382478
vn 0.382478 0.001835 -0.923963
vn 0.382478 -0.001835 -0.923963
vn 0.002960 -0.002960 -0.999991
vn 0.923962 0.001836 -0.382481
vn 0.923962 -0.001836 -0.382481
vn -0.001835 -0.923963 -0.382478
vn 0.001835 -0.923963 -0.382478
vn -0.001836 -0.382481 -0.923962
vn 0.001836 -0.382481 -0.923962
vn -0.887918 -0.325273 0.325267
vn -0.325267 -0.887918 0.325273
vn -0.325273 -0.325267 0.887918
vn 0.325267 -0.887918 0.325274
vn 0.887918 -0.325274 0.325267
vn 0.325274 -0.325267 0.887918
vn -0.325267 0.887918 0.325274
vn -0.887918 0.325274 0.325267
vn -0.325274 0.325267 0.887918
vn 0.887918 0.325273 0.325267
vn 0.325267 0.887918 0.325273
vn 0.325273 0.325267 0.887918
vn -0.325273 0.325267 -0.887918
vn -0.887918 0.325273 -0.325267
vn -0.325267 0.887918 -0.325273
vn 0.887918 0.325274 -0.325267
vn 0.325274 0.325267 -0.887918
vn 0.325267 0.887918 -0.325274
vn -0.325267 -0.887918 -0.325274
vn -0.887918 -0.325274 -0.325267
vn -0.325274 -0.325267 -0.887918
vn 0.887918 -0.325273 -0.325267
vn 0.325267 -0.887918 -0.325273
vn 0.325273 -0.325267 -0.887918
s 1
g pCube2
f 66/91/121 65/115/122 101/144/123 106/111/124
s 2
f 65/116/125 70/112/126 102/98/127 101/143/128
s 3
f 68/92/129 67/117/130 75/124/131 74/106/132
s 1
f 67/118/133 66/91/121 76/93/134 75/123/135
s 2
f 70/112/126 69/119/136 79/127/137 78/113/138
s 3
f 69/119/139 68/92/129 80/95/140 79/127/141
s 4
f 72/94/142 71/120/143 107/149/144 112/102/145
s 1
f 71/121/146 76/93/134 108/103/147 107/148/148
s 3
f 74/106/132 73/122/149 87/132/150 86/96/151
s 4
f 73/122/152 72/94/142 88/97/153 87/132/154
s 2
f 78/113/138 77/125/155 91/136/156 90/114/157
s 5
f 77/126/158 82/107/159 92/99/160 91/135/161
f 82/107/159 81/128/162 85/131/163 84/108/164
s 3
f 81/128/165 80/95/140 86/96/151 85/131/166
s 5
f 84/108/164 83/129/167 99/142/168 98/100/169
s 4
f 83/130/170 88/97/153 100/101/171 99/141/172
s 2
f 90/114/157 89/133/173 103/146/174 102/98/127
s 6
f 89/134/175 94/109/176 104/104/177 103/145/178
f 94/109/176 93/137/179 97/140/180 96/110/181
s 5
f 93/137/182 92/99/160 98/100/169 97/140/183
s 6
f 96/110/181 95/138/184 111/152/185 110/105/186
s 4
f 95/139/187 100/101/171 112/102/145 111/151/188
s 1
f 106/111/124 105/147/189 109/150/190 108/103/147
s 6
f 105/147/191 104/104/177 110/105/186 109/150/192
s 3
f 68/92/129 74/106/132 86/96/151 80/95/140
s 5
f 82/107/159 84/108/164 98/100/169 92/99/160
s 6
f 94/109/176 96/110/181 110/105/186 104/104/177
s 1
f 106/111/124 108/103/147 76/93/134 66/91/121
s 4
f 72/94/142 112/102/145 100/101/171 88/97/153
s 2
f 102/98/127 70/112/126 78/113/138 90/114/157
f 69/119/136 70/112/126 65/116/125 113/154/193
s 1
f 65/115/122 66/91/121 67/118/133 113/153/194
s 3
f 67/117/130 68/92/129 69/119/139 113/154/195
s 1
f 75/123/135 76/93/134 71/121/146 114/156/196
s 4
f 71/120/143 72/94/142 73/122/152 114/155/197
s 3
f 73/122/149 74/106/132 75/124/131 114/155/198
s 5
f 81/128/162 82/107/159 77/126/158 115/157/199
s 2
f 77/125/155 78/113/138 79/127/137 115/157/200
s 3
f 79/127/141 80/95/140 81/128/165 115/157/201
s 4
f 87/132/154 88/97/153 83/130/170 116/158/202
s 5
f 83/129/167 84/108/164 85/131/163 116/158/203
s 3
f 85/131/166 86/96/151 87/132/150 116/158/204
s 6
f 93/137/179 94/109/176 89/134/175 117/160/205
s 2
f 89/133/173 90/114/157 91/136/156 117/159/206
s 5
f 91/135/161 92/99/160 93/137/182 117/160/207
s 4
f 99/141/172 100/101/171 95/139/187 118/162/208
s 6
f 95/138/184 96/110/181 97/140/180 118/161/209
s 5
f 97/140/183 98/100/169 99/142/168 118/161/210
s 1
f 105/147/189 106/111/124 101/144/123 119/164/211
s 2
f 101/143/128 102/98/127 103/146/174 119/163/212
s 6
f 103/145/178 104/104/177 105/147/191 119/164/213
s 4
f 111/151/188 112/102/145 107/149/144 120/166/214
s 1
f 107/148/148 108/103/147 109/150/190 120/165/215
s 6
f 109/150/192 110/105/186 111/152/185 120/165/216
