# This file uses centimeters as units for non-parametric coordinates.

mtllib Block7HIGHTRIANGLE.mtl
g default
v 0.541199 -20.699674 0.270603
v -98.567932 -18.865995 98.574783
v -99.199280 -18.867178 97.053993
v -99.112106 -20.122358 97.675232
v -98.000198 -20.699674 98.000198
v -97.671852 -20.122350 99.114792
v -97.043716 -18.864805 99.204720
v 0.541199 -18.864805 99.204720
v 0.541199 -20.107313 99.097649
v 0.541199 -20.699674 98.000198
v -98.568207 -18.866781 -98.570496
v -97.044662 -18.866384 -99.201096
v -97.672058 -20.122541 -99.113213
v -98.000198 -20.699674 -98.000198
v -99.112312 -20.122541 -97.673187
v -99.199280 -18.867178 -97.048096
v 0.541199 -18.866384 -99.201096
v 0.541199 -20.107511 -99.096001
v 0.541199 -20.699674 -98.000198
v -99.199280 -18.867178 0.270603
v -99.095169 -20.107603 0.270603
v -98.000198 -20.699674 0.270603
v 98.576530 -18.864416 98.574242
v 97.055550 -18.864805 99.204720
v 97.675957 -20.121984 99.114380
v 98.000198 -20.699674 98.000198
v 99.115280 -20.121977 97.674828
v 99.206543 -18.864019 97.052124
v 99.206543 -18.864019 0.270603
v 99.098480 -20.107221 0.270603
v 98.000198 -20.699674 0.270603
v 98.576805 -18.865202 -98.569946
v 99.206543 -18.864019 -97.046211
v 99.115486 -20.122160 -97.672775
v 98.000198 -20.699674 -98.000198
v 97.676155 -20.122167 -99.112793
v 97.056480 -18.866384 -99.201096
v 1.608810 205.293673 -0.810222
v 0.531144 204.443026 -1.887897
v -0.543947 205.294771 -0.810135
v -1.623000 204.443331 0.265579
v -0.543991 205.294222 1.342582
v 0.531146 204.442477 2.417714
v 1.608854 205.293123 1.342669
v 2.682603 204.442171 0.265581
v -98.725342 -19.868421 98.729073
v -98.725510 -19.868673 -98.726761
v 98.729988 -19.867903 98.728737
v 98.730156 -19.868162 -98.726418
v 0.534350 206.144778 0.267183
vt 0.377500 0.252500
vt 0.377500 0.497500
vt 0.622500 0.252500
vt 0.621321 0.499001
vt 0.624008 0.496308
vt 0.503353 0.374668
vt 0.500664 0.377360
vt 0.497971 0.374668
vt 0.621319 0.250994
vt 0.500664 0.371978
vt 0.376001 0.374662
vt 0.376001 0.496310
vt 0.624008 0.374662
vt 0.624008 0.253685
vt 0.378695 0.250994
vt 0.500677 0.250994
vt 0.500677 0.499001
vt 0.622500 0.374662
vt 0.500677 0.252500
vt 0.377500 0.374662
vt 0.500677 0.497500
vt 0.500677 0.374662
vt 0.378694 0.499001
vt 0.376001 0.253683
vt 0.622500 0.497500
vt 0.377174 0.252171
vt 0.376733 0.252888
vt 0.377892 0.251721
vt 0.500677 0.250000
vt 0.377176 0.497827
vt 0.377892 0.498268
vt 0.376725 0.497109
vt 0.500677 0.500000
vt 0.375000 0.374662
vt 0.622834 0.252171
vt 0.622113 0.251729
vt 0.623280 0.252889
vt 0.625000 0.374662
vt 0.622833 0.497825
vt 0.623272 0.497109
vt 0.622113 0.498277
vt 0.501677 0.375675
vt 0.499654 0.375676
vt 0.499659 0.373657
vt 0.501672 0.373656
vt 0.375000 0.250000
vt 0.375000 0.500000
vt 0.625000 0.250000
vt 0.625000 0.500000
vt 0.500677 0.374662
vn -0.916486 0.399674 0.017729
vn -0.790582 0.498129 0.356157
vn -0.788841 0.503401 0.352587
vn -0.906946 0.421248 0.000016
vn -0.355715 0.496825 0.791601
vn -0.017691 0.396957 0.917667
vn 0.000033 0.418551 0.908193
vn -0.352165 0.502090 0.789864
vn -0.007324 -0.073923 0.997237
vn 0.000001 -0.078664 0.996901
vn 0.000000 0.393270 0.919423
vn -0.002896 -0.883927 0.467615
vn -0.004943 -0.999975 0.004977
vn 0.000000 -0.999983 0.005908
vn 0.000001 -0.883979 0.467527
vn -0.017669 0.398769 -0.916881
vn -0.355621 0.498273 -0.790733
vn -0.352064 0.503531 -0.788992
vn 0.000033 0.420349 -0.907362
vn -0.790391 0.498707 -0.355772
vn -0.916487 0.399673 -0.017682
vn -0.788648 0.503968 -0.352209
vn -0.997399 -0.071703 -0.007345
vn -0.997077 -0.076403 0.000001
vn -0.918249 0.396003 0.000000
vn -0.468284 -0.883573 -0.002912
vn -0.004937 -0.999976 -0.004948
vn -0.005857 -0.999983 0.000000
vn -0.468156 -0.883646 0.000001
vn 0.000000 -0.999983 -0.005874
vn 0.000001 -0.883757 -0.467946
vn 0.002948 -0.883614 -0.468207
vn 0.004995 -0.999975 -0.004961
vn 0.000001 -0.077157 -0.997019
vn 0.000000 0.395093 -0.918641
vn 0.017764 0.398770 -0.916879
vn 0.007370 -0.072601 -0.997334
vn 0.017786 0.396959 0.917664
vn 0.356489 0.495661 0.791982
vn 0.352929 0.500950 0.790247
vn 0.792323 0.495226 0.356335
vn 0.918057 0.396051 0.017772
vn 0.908608 0.417650 0.000016
vn 0.790590 0.500513 0.352781
vn 0.997170 -0.074824 0.007349
vn 0.996841 -0.079423 0.000001
vn 0.919813 0.392356 0.000000
vn 0.467543 -0.883965 0.002933
vn 0.005001 -0.999975 0.004990
vn 0.005925 -0.999983 0.000000
vn 0.467323 -0.884087 0.000001
vn 0.918058 0.396050 -0.017725
vn 0.792135 0.495806 -0.355947
vn 0.790401 0.501081 -0.352399
vn 0.356395 0.497110 -0.791116
vn 0.352826 0.502391 -0.789377
vn 0.000000 -1.000000 0.000000
vn 0.007363 -0.074115 0.997223
vn 0.002946 -0.883837 0.467786
vn -0.002898 -0.883708 -0.468030
vn -0.007331 -0.072406 -0.997348
vn -0.468374 -0.883525 0.002937
vn -0.997393 -0.071787 0.007364
vn 0.997176 -0.074739 -0.007330
vn 0.467449 -0.884015 -0.002908
vn -0.349958 0.147987 0.925002
vn -0.924485 0.149257 0.350785
vn -0.444463 -0.777632 0.444681
vn -0.924463 0.150123 -0.350473
vn -0.350193 0.149701 -0.924638
vn -0.444844 -0.777273 -0.444928
vn 0.925213 0.145835 0.350304
vn 0.350570 0.146258 0.925046
vn 0.443978 -0.778353 0.443903
vn 0.350828 0.147970 -0.924675
vn 0.925197 0.146683 -0.349993
vn 0.444364 -0.777992 -0.444150
vn 0.621130 0.783707 0.000165
vn 0.000375 0.784822 -0.619721
vn -0.619258 0.785188 0.000175
vn 0.000375 0.784081 0.620658
s 1
g pCube1
usemtl initialShadingGroup
f 3/24/1 2/26/2 42/44/3 41/8/4
s 2
f 2/26/5 7/15/6 43/10/7 42/44/8
f 7/15/6 6/28/9 9/29/10 8/16/11
s 3
f 6/28/12 5/1/13 10/19/14 9/29/15
s 4
f 12/23/16 11/30/17 40/43/18 39/7/19
s 1
f 11/30/20 16/12/21 41/8/4 40/43/22
f 16/12/21 15/32/23 21/34/24 20/11/25
s 3
f 15/32/26 14/2/27 22/20/28 21/34/29
f 19/21/30 18/33/31 36/41/32 35/25/33
s 4
f 18/33/34 17/17/35 37/4/36 36/41/37
s 2
f 24/9/38 23/35/39 44/45/40 43/10/7
s 10
f 23/35/41 28/14/42 45/6/43 44/45/44
f 28/14/42 27/37/45 30/38/46 29/13/47
s 3
f 27/37/48 26/3/49 31/18/50 30/38/51
s 10
f 33/5/52 32/39/53 38/42/54 45/6/43
s 4
f 32/39/55 37/4/36 39/7/19 38/42/56
s 10
f 33/5/52 45/6/43 29/13/47
s 4
f 12/23/16 39/7/19 17/17/35
s 1
f 3/24/1 41/8/4 20/11/25
s 2
f 24/9/38 43/10/7 8/16/11
s 1
f 20/11/25 41/8/4 16/12/21
s 10
f 29/13/47 45/6/43 28/14/42
s 2
f 7/15/6 8/16/11 43/10/7
s 4
f 17/17/35 39/7/19 37/4/36
s 3
f 31/18/50 1/22/57 19/21/30 35/25/33
f 10/19/14 1/22/57 31/18/50 26/3/49
f 10/19/14 5/1/13 22/20/28 1/22/57
f 19/21/30 1/22/57 22/20/28 14/2/27
s 2
f 8/16/11 9/29/10 25/36/58 24/9/38
s 3
f 9/29/15 10/19/14 26/3/49 25/36/59
f 14/2/27 13/31/60 18/33/31 19/21/30
s 4
f 13/31/61 12/23/16 17/17/35 18/33/34
s 3
f 5/1/13 4/27/62 21/34/29 22/20/28
s 1
f 4/27/63 3/24/1 20/11/25 21/34/24
s 10
f 29/13/47 30/38/46 34/40/64 33/5/52
s 3
f 30/38/51 31/18/50 35/25/33 34/40/65
s 2
f 6/28/9 7/15/6 2/26/5 46/46/66
s 1
f 2/26/2 3/24/1 4/27/63 46/46/67
s 3
f 4/27/62 5/1/13 6/28/12 46/46/68
s 1
f 15/32/23 16/12/21 11/30/20 47/47/69
s 4
f 11/30/17 12/23/16 13/31/61 47/47/70
s 3
f 13/31/60 14/2/27 15/32/26 47/47/71
s 10
f 27/37/45 28/14/42 23/35/41 48/48/72
s 2
f 23/35/39 24/9/38 25/36/58 48/48/73
s 3
f 25/36/59 26/3/49 27/37/48 48/48/74
s 4
f 36/41/37 37/4/36 32/39/55 49/49/75
s 10
f 32/39/53 33/5/52 34/40/64 49/49/76
s 3
f 34/40/65 35/25/33 36/41/32 49/49/77
s 10
f 44/45/44 45/6/43 38/42/54 50/50/78
s 4
f 38/42/56 39/7/19 40/43/18 50/50/79
s 1
f 40/43/22 41/8/4 42/44/3 50/50/80
s 2
f 42/44/8 43/10/7 44/45/40 50/50/81
