# This file uses centimeters as units for non-parametric coordinates.

mtllib Block8HIGHARCH.mtl
g default
v -242.176910 47.989735 222.042740
v -242.176910 142.435135 222.042740
v -635.767578 142.435120 222.042740
v -635.767578 47.989719 222.042740
v -242.176910 47.989735 -174.929764
v -242.176910 142.435135 -174.929764
v -515.798889 47.989723 145.209213
v -535.850037 47.989723 162.334534
v -535.850037 142.435120 162.334534
v -515.798889 142.435120 145.209213
v -498.673584 47.989723 125.158035
v -498.673584 142.435120 125.158035
v -558.333374 47.989723 176.112320
v -558.333374 142.435120 176.112320
v -484.895782 47.989727 102.674744
v -484.895782 142.435120 102.674744
v -474.804810 47.989727 78.312927
v -474.804810 142.435120 78.312927
v -582.695190 47.989723 186.203308
v -582.695190 142.435120 186.203308
v -608.335632 47.989719 192.359039
v -608.335632 142.435120 192.359039
v -468.649078 47.989727 52.672470
v -468.649078 142.435120 52.672470
v -635.767578 142.435120 194.337860
v -635.767578 47.989719 194.337860
v -634.623352 47.989719 194.427917
v -634.623352 142.435120 194.427917
v -466.580200 47.989727 26.384724
v -466.580200 142.435120 26.384724
v -468.648956 47.989727 0.097006
v -468.648956 142.435120 0.097006
v -474.804688 47.989727 -25.543465
v -474.804688 142.435120 -25.543465
v -484.895691 47.989727 -49.905293
v -484.895691 142.435120 -49.905293
v -498.673462 47.989723 -72.388596
v -498.673462 142.435120 -72.388596
v -515.798767 47.989723 -92.439789
v -515.798767 142.435120 -92.439789
v -635.767578 47.989719 -174.929764
v -635.767578 142.435120 -174.929764
v -535.849976 47.989723 -109.565109
v -535.849976 142.435120 -109.565109
v -558.333252 47.989723 -123.342896
v -558.333252 142.435120 -123.342896
v -582.695068 47.989723 -133.433914
v -582.695068 142.435120 -133.433914
v -608.335571 47.989719 -139.589645
v -608.335571 142.435120 -139.589645
v -634.623291 47.989719 -141.658539
v -634.623291 142.435120 -141.658539
v -635.767578 142.435120 -141.568481
v -635.767578 47.989719 -141.568481
vt 0.375000 0.000000
vt 0.625000 0.000000
vt 0.625000 0.250000
vt 0.375000 0.250000
vt 0.375000 0.750000
vt 0.625000 0.750000
vt 0.625000 1.000000
vt 0.375000 1.000000
vt 0.587500 0.419340
vt 0.581250 0.419340
vt 0.581250 0.630630
vt 0.587500 0.630630
vt 0.593750 0.419340
vt 0.593750 0.630630
vt 0.575000 0.419340
vt 0.575000 0.630630
vt 0.600000 0.419340
vt 0.600000 0.630630
vt 0.606250 0.419340
vt 0.606250 0.630630
vt 0.568750 0.419340
vt 0.568750 0.630630
vt 0.562500 0.419340
vt 0.562500 0.630630
vt 0.612500 0.419340
vt 0.612500 0.630630
vt 0.625000 0.267448
vt 0.375000 0.267448
vt 0.556250 0.419340
vt 0.556250 0.630630
vt 0.618750 0.419340
vt 0.618750 0.630630
vt 0.555978 0.419340
vt 0.555978 0.630630
vt 0.625000 0.419340
vt 0.625000 0.630630
vt 0.381250 0.419340
vt 0.375000 0.419340
vt 0.375000 0.630630
vt 0.381250 0.630630
vt 0.387500 0.419340
vt 0.387500 0.630630
vt 0.393750 0.419340
vt 0.393750 0.630630
vt 0.400000 0.419340
vt 0.400000 0.630630
vt 0.375000 0.500000
vt 0.625000 0.500000
vt 0.406250 0.419340
vt 0.406250 0.630630
vt 0.412500 0.419340
vt 0.412500 0.630630
vt 0.418750 0.419340
vt 0.418750 0.630630
vt 0.425000 0.419340
vt 0.425000 0.630630
vt 0.431250 0.419340
vt 0.431250 0.630630
vt 0.431522 0.630630
vt 0.431522 0.419340
vt 0.625000 0.478990
vt 0.375000 0.478990
vt 0.875000 0.000000
vt 0.875000 0.250000
vt 0.853990 0.250000
vt 0.854047 0.249273
vt 0.852744 0.232576
vt 0.848867 0.216290
vt 0.842512 0.200815
vt 0.833836 0.186535
vt 0.823051 0.173799
vt 0.810423 0.162921
vt 0.796264 0.154170
vt 0.780922 0.147760
vt 0.764774 0.143850
vt 0.748219 0.142536
vt 0.731664 0.143850
vt 0.715516 0.147760
vt 0.700174 0.154170
vt 0.686015 0.162921
vt 0.673387 0.173799
vt 0.662602 0.186535
vt 0.653925 0.200816
vt 0.647570 0.216290
vt 0.643694 0.232576
vt 0.642391 0.249273
vt 0.642448 0.250000
vt 0.125000 0.000000
vt 0.357552 0.250000
vt 0.357609 0.249273
vt 0.356306 0.232576
vt 0.352430 0.216290
vt 0.346075 0.200816
vt 0.337398 0.186535
vt 0.326613 0.173799
vt 0.313985 0.162921
vt 0.299826 0.154170
vt 0.284484 0.147760
vt 0.268336 0.143850
vt 0.251781 0.142536
vt 0.235226 0.143850
vt 0.219078 0.147760
vt 0.203736 0.154170
vt 0.189577 0.162921
vt 0.176949 0.173799
vt 0.166164 0.186535
vt 0.157488 0.200815
vt 0.151133 0.216290
vt 0.147256 0.232576
vt 0.145953 0.249273
vt 0.146010 0.250000
vt 0.125000 0.250000
vn 0.000000 0.000000 1.000000
vn 0.000000 0.000000 1.000000
vn 0.000000 0.000000 1.000000
vn 0.000000 0.000000 1.000000
vn 1.000000 0.000000 0.000000
vn 1.000000 0.000000 0.000000
vn 1.000000 0.000000 0.000000
vn 1.000000 0.000000 0.000000
vn -0.707107 0.000000 -0.707106
vn -0.587785 0.000000 -0.809017
vn -0.587785 0.000000 -0.809017
vn -0.707107 0.000000 -0.707106
vn -0.809017 0.000000 -0.587785
vn -0.809017 0.000000 -0.587785
vn -0.453990 0.000000 -0.891007
vn -0.453990 0.000000 -0.891007
vn -0.891007 0.000000 -0.453990
vn -0.891007 0.000000 -0.453990
vn -0.951057 0.000000 -0.309017
vn -0.951057 0.000000 -0.309017
vn -0.309017 0.000000 -0.951056
vn -0.309017 0.000000 -0.951056
vn -0.156435 0.000000 -0.987688
vn -0.156435 0.000000 -0.987688
vn -0.987688 0.000000 -0.156434
vn -0.987688 0.000000 -0.156434
vn -1.000000 0.000000 0.000000
vn -1.000000 0.000000 0.000000
vn -1.000000 0.000000 0.000000
vn -1.000000 0.000000 0.000000
vn -0.071949 0.000000 -0.997408
vn -0.071949 0.000000 -0.997408
vn -1.000000 0.000000 -0.000002
vn -1.000000 0.000000 -0.000002
vn 0.078449 0.000000 -0.996918
vn 0.078449 0.000000 -0.996918
vn -0.987689 0.000000 0.156432
vn -0.987689 0.000000 0.156432
vn -0.951057 0.000000 0.309017
vn -0.951057 0.000000 0.309017
vn -0.891007 0.000000 0.453990
vn -0.891007 0.000000 0.453990
vn -0.809017 0.000000 0.587785
vn -0.809017 0.000000 0.587785
vn -0.707107 0.000000 0.707107
vn -0.707107 0.000000 0.707107
vn -0.000000 0.000000 -1.000000
vn -0.000000 0.000000 -1.000000
vn -0.000000 0.000000 -1.000000
vn -0.000000 0.000000 -1.000000
vn -0.587785 0.000000 0.809017
vn -0.587785 0.000000 0.809017
vn -0.453991 0.000000 0.891006
vn -0.453991 0.000000 0.891006
vn -0.309017 0.000000 0.951057
vn -0.309017 0.000000 0.951057
vn -0.156435 0.000000 0.987688
vn -0.156435 0.000000 0.987688
vn -0.071949 0.000000 0.997408
vn -0.071949 0.000000 0.997408
vn 0.078462 0.000000 0.996917
vn 0.078462 0.000000 0.996917
vn -1.000000 0.000000 0.000000
vn -1.000000 0.000000 0.000000
vn -1.000000 0.000000 0.000000
vn -1.000000 0.000000 0.000000
vn -0.000000 1.000000 -0.000000
vn -0.000000 1.000000 -0.000000
vn -0.000000 1.000000 -0.000000
vn -0.000000 1.000000 -0.000000
vn -0.000000 1.000000 -0.000000
vn -0.000000 1.000000 -0.000000
vn -0.000000 1.000000 -0.000000
vn -0.000000 1.000000 -0.000000
vn -0.000000 1.000000 -0.000000
vn -0.000000 1.000000 -0.000000
vn -0.000000 1.000000 -0.000000
vn -0.000000 1.000000 -0.000000
vn -0.000000 1.000000 -0.000000
vn -0.000000 1.000000 -0.000000
vn -0.000000 1.000000 -0.000000
vn -0.000000 1.000000 -0.000000
vn -0.000000 1.000000 -0.000000
vn -0.000000 1.000000 -0.000000
vn -0.000000 1.000000 -0.000000
vn -0.000000 1.000000 -0.000000
vn -0.000000 1.000000 -0.000000
vn -0.000000 1.000000 -0.000000
vn -0.000000 1.000000 -0.000000
vn -0.000000 1.000000 -0.000000
vn -0.000000 1.000000 -0.000000
vn -0.000000 1.000000 -0.000000
vn -0.000000 1.000000 -0.000000
vn 0.000000 -1.000000 0.000000
vn 0.000000 -1.000000 0.000000
vn 0.000000 -1.000000 0.000000
vn 0.000000 -1.000000 0.000000
vn 0.000000 -1.000000 0.000000
vn 0.000000 -1.000000 0.000000
vn 0.000000 -1.000000 0.000000
vn 0.000000 -1.000000 0.000000
vn 0.000000 -1.000000 0.000000
vn 0.000000 -1.000000 0.000000
vn 0.000000 -1.000000 0.000000
vn 0.000000 -1.000000 0.000000
vn 0.000000 -1.000000 0.000000
vn 0.000000 -1.000000 0.000000
vn 0.000000 -1.000000 0.000000
vn 0.000000 -1.000000 0.000000
vn 0.000000 -1.000000 0.000000
vn 0.000000 -1.000000 0.000000
vn 0.000000 -1.000000 0.000000
vn 0.000000 -1.000000 0.000000
vn 0.000000 -1.000000 0.000000
vn 0.000000 -1.000000 0.000000
vn 0.000000 -1.000000 0.000000
vn 0.000000 -1.000000 0.000000
vn 0.000000 -1.000000 0.000000
vn 0.000000 -1.000000 0.000000
vn 0.000000 -1.000000 0.000000
s off
g pCube7
usemtl initialShadingGroup
f 1/1/1 2/2/2 3/3/3 4/4/4
f 5/5/5 6/6/6 2/7/7 1/8/8
s 1
f 7/9/9 8/10/10 9/11/11 10/12/12
f 11/13/13 7/9/9 10/12/12 12/14/14
f 8/10/10 13/15/15 14/16/16 9/11/11
f 15/17/17 11/13/13 12/14/14 16/18/18
f 17/19/19 15/17/17 16/18/18 18/20/20
f 13/15/15 19/21/21 20/22/22 14/16/16
f 19/21/21 21/23/23 22/24/24 20/22/22
f 23/25/25 17/19/19 18/20/20 24/26/26
s off
f 4/4/27 3/3/28 25/27/29 26/28/30
s 1
f 21/23/23 27/29/31 28/30/32 22/24/24
f 29/31/33 23/25/25 24/26/26 30/32/34
f 27/29/31 26/33/35 25/34/36 28/30/32
f 31/35/37 29/31/33 30/32/34 32/36/38
f 33/37/39 31/38/37 32/39/38 34/40/40
f 35/41/41 33/37/39 34/40/40 36/42/42
f 37/43/43 35/41/41 36/42/42 38/44/44
f 39/45/45 37/43/43 38/44/44 40/46/46
s off
f 41/47/47 42/48/48 6/6/49 5/5/50
s 1
f 43/49/51 39/45/45 40/46/46 44/50/52
f 45/51/53 43/49/51 44/50/52 46/52/54
f 47/53/55 45/51/53 46/52/54 48/54/56
f 49/55/57 47/53/55 48/54/56 50/56/58
f 51/57/59 49/55/57 50/56/58 52/58/60
f 52/58/60 53/59/61 54/60/62 51/57/59
s off
f 53/61/63 42/48/64 41/47/65 54/62/66
f 2/2/67 6/63/68 42/64/69 53/65/70 52/66/71 50/67/72 48/68/73 46/69/74 44/70/75 40/71/76 38/72/77 36/73/78 34/74/79 32/75/80 30/76/81 24/77/82 18/78/83 16/79/84 12/80/85 10/81/86 9/82/87 14/83/88 20/84/89 22/85/90 28/86/91 25/87/92 3/3/93
f 5/88/94 1/1/95 4/4/96 26/89/97 27/90/98 21/91/99 19/92/100 13/93/101 8/94/102 7/95/103 11/96/104 15/97/105 17/98/106 23/99/107 29/100/108 31/101/109 33/102/110 35/103/111 37/104/112 39/105/113 43/106/114 45/107/115 47/108/116 49/109/117 51/110/118 54/111/119 41/112/120
